AbdAlQadir.ufo
<glyph name="alef-ar" format="2">
  <advance width="200"/>
  <unicode hex="0627"/>
  <outline>
    <contour>
      <point x="80" y="560" type="line"/>
      <point x="0" y="540" type="line"/>
      <point x="0" y="80" type="line"/>
      <point x="0" y="29.9963"/>
      <point x="36.5116" y="0.276831"/>
      <point x="77.2979" y="0.276831" type="curve" smooth="yes"/>
      <point x="106.659" y="0.276831"/>
      <point x="138.235" y="15.6779"/>
      <point x="160" y="50" type="curve"/>
      <point x="150.544" y="45.7611"/>
      <point x="138.749" y="43.3297"/>
      <point x="127.146" y="43.3297" type="curve" smooth="yes"/>
      <point x="103.164" y="43.3297"/>
      <point x="80" y="53.7166"/>
      <point x="80" y="80" type="curve"/>
    </contour>
  </outline>
</glyph>
<glyph name="hah-ar" format="2">
  <advance width="640"/>
  <unicode hex="062D"/>
  <anchor x="300" y="-185" name="bottom"/>
  <outline>
    <component base="hah-ar.init" xOffset="240"/>
    <contour>
      <point x="90" y="70" type="line" smooth="yes"/>
      <point x="40" y="70"/>
      <point x="0" y="30"/>
      <point x="0" y="-20" type="curve" smooth="yes"/>
      <point x="0" y="-70"/>
      <point x="40" y="-110"/>
      <point x="90" y="-110" type="curve" smooth="yes"/>
      <point x="495" y="-110" type="line"/>
      <point x="536" y="-40" type="line"/>
      <point x="100" y="-40" type="line" smooth="yes"/>
      <point x="89" y="-40"/>
      <point x="80" y="-31"/>
      <point x="80" y="-20" type="curve" smooth="yes"/>
      <point x="80" y="-9"/>
      <point x="89" y="0"/>
      <point x="100" y="0" type="curve" smooth="yes"/>
      <point x="239.5" y="0" type="line"/>
      <point x="239.5" y="70" type="line"/>
    </contour>
  </outline>
</glyph>
<glyph name="dal-ar" format="2">
  <advance width="600"/>
  <unicode hex="062F"/>
  <anchor x="280" y="325" name="top"/>
  <outline>
    <contour>
      <point x="446" y="180" type="curve" smooth="yes"/>
      <point x="120" y="180" type="line"/>
      <point x="147" y="250" type="line"/>
      <point x="144.4" y="250" type="line"/>
      <point x="63.5" y="110" type="line"/>
      <point x="436" y="110" type="line" smooth="yes"/>
      <point x="458" y="110"/>
      <point x="476" y="92"/>
      <point x="476" y="70" type="curve"/>
      <point x="40.4" y="70" type="line"/>
      <point x="0" y="0" type="line"/>
      <point x="539" y="0" type="line" smooth="yes"/>
      <point x="545" y="0"/>
      <point x="560" y="0"/>
      <point x="560" y="21" type="curve"/>
      <point x="560" y="160"/>
      <point x="490" y="180"/>
    </contour>
  </outline>
</glyph>
<glyph name="reh-ar" format="2">
  <advance width="312"/>
  <unicode hex="0631"/>
  <anchor x="117" y="215" name="top"/>
  <outline>
    <contour>
      <point x="81.4" y="140" type="curve"/>
      <point x="0.5" y="0" type="line"/>
      <point x="173" y="0" type="line" smooth="yes"/>
      <point x="195" y="0"/>
      <point x="213" y="-18"/>
      <point x="213" y="-40" type="curve"/>
      <point x="-22.6" y="-40" type="line"/>
      <point x="-63" y="-110" type="line"/>
      <point x="276" y="-110" type="line" smooth="yes"/>
      <point x="282" y="-110"/>
      <point x="297" y="-110"/>
      <point x="297" y="-89" type="curve"/>
      <point x="297" y="50"/>
      <point x="228.195" y="92.8703"/>
    </contour>
  </outline>
</glyph>
<glyph name="seen-ar" format="2">
  <advance width="510"/>
  <unicode hex="0633"/>
  <outline>
    <component base="behDotless-ar.init" xOffset="390"/>
    <component base="behDotless-ar.medi" xOffset="270"/>
    <contour>
      <point x="230" y="110" type="line"/>
      <point x="230" y="88"/>
      <point x="248" y="70"/>
      <point x="270" y="70" type="curve"/>
      <point x="270" y="0" type="line"/>
      <point x="190" y="0" type="line"/>
      <point x="190" y="110" type="line"/>
    </contour>
    <contour>
      <point x="-50" y="-250" type="line"/>
      <point x="2" y="-160" type="line"/>
      <point x="13.1837" y="-174.526"/>
      <point x="29.8474" y="-180"/>
      <point x="50" y="-180" type="curve"/>
      <point x="150" y="-180" type="line"/>
      <point x="150" y="210" type="line"/>
      <point x="230" y="230" type="line"/>
      <point x="230" y="-210" type="line" smooth="yes"/>
      <point x="230" y="-235"/>
      <point x="215" y="-250"/>
      <point x="192" y="-250" type="curve"/>
    </contour>
  </outline>
</glyph>
<glyph name="sad-ar" format="2">
  <advance width="820"/>
  <unicode hex="0635"/>
  <anchor x="425" y="335.038" name="top"/>
  <outline>
    <contour>
      <point x="-50" y="-250" type="line"/>
      <point x="192" y="-250" type="line" smooth="yes"/>
      <point x="215" y="-250"/>
      <point x="230" y="-235"/>
      <point x="230" y="-210" type="curve" smooth="yes"/>
      <point x="230" y="180" type="line"/>
      <point x="150" y="180" type="line"/>
      <point x="150" y="-180" type="line"/>
      <point x="50" y="-180" type="line"/>
      <point x="29.8474" y="-180"/>
      <point x="13.1837" y="-174.526"/>
      <point x="2" y="-160" type="curve"/>
    </contour>
    <contour>
      <point x="110.1" y="190" type="line"/>
      <point x="182.142" y="117.972" type="line"/>
      <point x="229.606" y="146.906" type="line"/>
      <point x="229.606" y="180" type="line"/>
      <point x="150" y="260.038" type="line"/>
    </contour>
    <contour>
      <point x="666" y="180" type="curve" smooth="yes"/>
      <point x="213" y="180" type="line"/>
      <point x="213" y="110" type="line"/>
      <point x="656" y="110" type="line" smooth="yes"/>
      <point x="678" y="110"/>
      <point x="696" y="92"/>
      <point x="696" y="70" type="curve"/>
      <point x="220" y="70" type="line"/>
      <point x="220" y="0" type="line"/>
      <point x="759" y="0" type="line" smooth="yes"/>
      <point x="765" y="0"/>
      <point x="780" y="0"/>
      <point x="780" y="21" type="curve"/>
      <point x="780" y="160"/>
      <point x="710" y="180"/>
    </contour>
  </outline>
</glyph>
<glyph name="tah-ar" format="2">
  <advance width="750"/>
  <unicode hex="0637"/>
  <anchor x="400" y="335.038" name="top"/>
  <outline>
    <contour>
      <point x="596" y="180" type="curve" smooth="yes"/>
      <point x="143" y="180" type="line"/>
      <point x="143" y="110" type="line"/>
      <point x="586" y="110" type="line" smooth="yes"/>
      <point x="608" y="110"/>
      <point x="626" y="92"/>
      <point x="626" y="70" type="curve"/>
      <point x="40.4" y="70" type="line"/>
      <point x="0" y="0" type="line"/>
      <point x="689" y="0" type="line" smooth="yes"/>
      <point x="695" y="0"/>
      <point x="710" y="0"/>
      <point x="710" y="21" type="curve"/>
      <point x="710" y="160"/>
      <point x="640" y="180"/>
    </contour>
    <contour>
      <point x="160" y="0" type="line"/>
      <point x="160" y="560" type="line"/>
      <point x="80" y="540" type="line"/>
      <point x="80" y="0" type="line"/>
    </contour>
  </outline>
</glyph>
<glyph name="ain-ar" format="2">
  <advance width="680"/>
  <unicode hex="0639"/>
  <outline>
    <component base="ain-ar.init" xOffset="350"/>
    <contour>
      <point x="90" y="70" type="line" smooth="yes"/>
      <point x="40" y="70"/>
      <point x="0" y="30"/>
      <point x="0" y="-20" type="curve" smooth="yes"/>
      <point x="0" y="-70"/>
      <point x="40" y="-110"/>
      <point x="90" y="-110" type="curve" smooth="yes"/>
      <point x="535" y="-110" type="line"/>
      <point x="576" y="-40" type="line"/>
      <point x="100" y="-40" type="line" smooth="yes"/>
      <point x="89" y="-40"/>
      <point x="80" y="-31"/>
      <point x="80" y="-20" type="curve" smooth="yes"/>
      <point x="80" y="-9"/>
      <point x="89" y="0"/>
      <point x="100" y="0" type="curve" smooth="yes"/>
      <point x="340" y="0" type="line"/>
      <point x="340" y="70" type="line"/>
    </contour>
  </outline>
</glyph>
<glyph name="kaf-ar" format="2">
  <advance width="640"/>
  <unicode hex="0643"/>
  <outline>
    <contour>
      <point x="486" y="180" type="curve" smooth="yes"/>
      <point x="113" y="180" type="line"/>
      <point x="62" y="110" type="line"/>
      <point x="476" y="110" type="line" smooth="yes"/>
      <point x="498" y="110"/>
      <point x="516" y="92"/>
      <point x="516" y="70" type="curve"/>
      <point x="40.4" y="70" type="line"/>
      <point x="0" y="0" type="line"/>
      <point x="579" y="0" type="line" smooth="yes"/>
      <point x="585" y="0"/>
      <point x="600" y="0"/>
      <point x="600" y="21" type="curve"/>
      <point x="600" y="160"/>
      <point x="530" y="180"/>
    </contour>
    <contour>
      <point x="91.3207" y="126.053" type="line"/>
      <point x="153.815" y="209.554"/>
      <point x="189.211" y="315.576"/>
      <point x="189.211" y="443.119" type="curve" smooth="yes"/>
      <point x="189.211" y="480.263"/>
      <point x="186.209" y="519.231"/>
      <point x="180" y="560" type="curve"/>
      <point x="100" y="480" type="line"/>
      <point x="106.84" y="439.661"/>
      <point x="110.571" y="397.695"/>
      <point x="110.571" y="355.374" type="curve" smooth="yes"/>
      <point x="110.571" y="271.705"/>
      <point x="95.9868" y="186.643"/>
      <point x="62" y="110" type="curve"/>
    </contour>
  </outline>
</glyph>
<glyph name="lam-ar" format="2">
  <advance width="270"/>
  <unicode hex="0644"/>
  <outline>
    <contour>
      <point x="-50" y="-250" type="line"/>
      <point x="192" y="-250" type="line"/>
      <point x="215" y="-250"/>
      <point x="230" y="-235"/>
      <point x="230" y="-210" type="curve" smooth="yes"/>
      <point x="230" y="560" type="line"/>
      <point x="150" y="540" type="line"/>
      <point x="150" y="-180" type="line"/>
      <point x="50" y="-180" type="line"/>
      <point x="29.8474" y="-180"/>
      <point x="13.1837" y="-174.526"/>
      <point x="2" y="-160" type="curve"/>
    </contour>
  </outline>
</glyph>
<glyph name="meem-ar" format="2">
  <advance width="439.981"/>
  <unicode hex="0645"/>
  <outline>
    <contour>
      <point x="279.981" y="90" type="curve" smooth="yes"/>
      <point x="279.981" y="101.038"/>
      <point x="288.942" y="110"/>
      <point x="299.981" y="110" type="curve" smooth="yes"/>
      <point x="311.019" y="110"/>
      <point x="319.981" y="101.038"/>
      <point x="319.981" y="90" type="curve" smooth="yes"/>
      <point x="319.981" y="78.9617"/>
      <point x="311.019" y="70"/>
      <point x="299.981" y="70" type="curve" smooth="yes"/>
      <point x="288.942" y="70"/>
      <point x="279.981" y="78.9617"/>
    </contour>
    <contour>
      <point x="199.981" y="90" type="curve" smooth="yes"/>
      <point x="199.981" y="30"/>
      <point x="244.789" y="0"/>
      <point x="299.981" y="0" type="curve" smooth="yes"/>
      <point x="365" y="0"/>
      <point x="399.981" y="30"/>
      <point x="399.981" y="90" type="curve" smooth="yes"/>
      <point x="399.981" y="139.672"/>
      <point x="355.172" y="180"/>
      <point x="299.981" y="180" type="curve" smooth="yes"/>
      <point x="244.789" y="180"/>
      <point x="199.981" y="140"/>
    </contour>
    <contour>
      <point x="300" y="70" type="line"/>
      <point x="100" y="70" type="line"/>
      <point x="79.8474" y="70"/>
      <point x="63.1837" y="75.4737"/>
      <point x="52" y="90" type="curve"/>
      <point x="0" y="0" type="line"/>
      <point x="300" y="0" type="line"/>
    </contour>
  </outline>
</glyph>
<glyph name="waw-ar" format="2">
  <advance width="270"/>
  <unicode hex="0648"/>
  <outline>
    <contour>
      <point x="10" y="-40" type="line"/>
      <point x="160" y="-40" type="line"/>
      <point x="161.544" y="-32.7862"/>
      <point x="162.265" y="-25.4957"/>
      <point x="162.265" y="-18.1994" type="curve" smooth="yes"/>
      <point x="162.265" y="-10.7262"/>
      <point x="161.509" y="-3.247"/>
      <point x="160.105" y="4.1623" type="curve"/>
      <point x="150.391" y="1.4"/>
      <point x="140.259" y="0"/>
      <point x="129.976" y="0" type="curve" smooth="yes"/>
      <point x="74.789" y="0"/>
      <point x="29.9806" y="40.3276"/>
      <point x="29.9806" y="90" type="curve" smooth="yes"/>
      <point x="29.9806" y="139.672"/>
      <point x="74.789" y="180"/>
      <point x="130.158" y="180" type="curve" smooth="yes"/>
      <point x="180.091" y="180"/>
      <point x="217.713" y="147.202"/>
      <point x="232.697" y="90.6765" type="curve" smooth="yes"/>
      <point x="239.37" y="65.5015"/>
      <point x="243.289" y="29.0712"/>
      <point x="243.289" y="-6.63076" type="curve" smooth="yes"/>
      <point x="243.289" y="-33.1752"/>
      <point x="242" y="-55.0451"/>
      <point x="238.317" y="-71.7242" type="curve" smooth="yes"/>
      <point x="232.876" y="-96.3662"/>
      <point x="223.562" y="-110"/>
      <point x="193" y="-110" type="curve" smooth="yes"/>
      <point x="10" y="-110" type="line"/>
    </contour>
    <contour>
      <point x="110.003" y="90" type="curve" smooth="yes"/>
      <point x="110.003" y="78.9617"/>
      <point x="118.964" y="70"/>
      <point x="130.003" y="70" type="curve" smooth="yes"/>
      <point x="141.041" y="70"/>
      <point x="150.003" y="78.9617"/>
      <point x="150.003" y="90" type="curve" smooth="yes"/>
      <point x="150.003" y="101.038"/>
      <point x="141.041" y="110"/>
      <point x="130.003" y="110" type="curve" smooth="yes"/>
      <point x="118.964" y="110"/>
      <point x="110.003" y="101.038"/>
    </contour>
    <contour>
      <point x="2" y="-20" type="line"/>
      <point x="12.1486" y="-33.1819"/>
      <point x="27.5585" y="-40"/>
      <point x="50" y="-40" type="curve" smooth="yes"/>
      <point x="130" y="-40" type="line"/>
      <point x="130" y="-110" type="line"/>
      <point x="-50" y="-110" type="line"/>
    </contour>
  </outline>
</glyph>
<glyph name="behDotless-ar" format="2">
  <advance width="600"/>
  <unicode hex="066E"/>
  <anchor x="280" y="300" name="top"/>
  <anchor x="280" y="-75" name="bottom"/>
  <outline>
    <contour>
      <point x="480" y="210" type="line"/>
      <point x="480" y="70" type="line"/>
      <point x="100" y="70" type="line" smooth="yes"/>
      <point x="79.8442" y="70"/>
      <point x="63.1837" y="75.4737"/>
      <point x="52" y="90" type="curve"/>
      <point x="0" y="0" type="line"/>
      <point x="539" y="0" type="line"/>
      <point x="545" y="0"/>
      <point x="560" y="0"/>
      <point x="560" y="11" type="curve"/>
      <point x="560" y="230" type="line"/>
    </contour>
  </outline>
</glyph>
<glyph name="qafDotless-ar" format="2">
  <advance width="296"/>
  <unicode hex="066F"/>
  <anchor x="96" y="255" name="top"/>
  <outline>
    <contour>
      <point x="80" y="90" type="curve" smooth="yes"/>
      <point x="80" y="101"/>
      <point x="89" y="110"/>
      <point x="100" y="110" type="curve" smooth="yes"/>
      <point x="111" y="110"/>
      <point x="120" y="101"/>
      <point x="120" y="90" type="curve" smooth="yes"/>
      <point x="120" y="79"/>
      <point x="111" y="70"/>
      <point x="100" y="70" type="curve" smooth="yes"/>
      <point x="89" y="70"/>
      <point x="80" y="79"/>
    </contour>
    <contour>
      <point x="0" y="90" type="curve" smooth="yes"/>
      <point x="0" y="30"/>
      <point x="45" y="0"/>
      <point x="100" y="0" type="curve" smooth="yes"/>
      <point x="165" y="0"/>
      <point x="200" y="30"/>
      <point x="200" y="90" type="curve" smooth="yes"/>
      <point x="200" y="140"/>
      <point x="155" y="180"/>
      <point x="100" y="180" type="curve" smooth="yes"/>
      <point x="45" y="180"/>
      <point x="0" y="140"/>
    </contour>
    <contour>
      <point x="142" y="-70" type="curve" smooth="yes"/>
      <point x="76" y="-70" type="line"/>
      <point x="0" y="-140" type="line"/>
      <point x="132" y="-140" type="line" smooth="yes"/>
      <point x="154" y="-140"/>
      <point x="172" y="-158"/>
      <point x="172" y="-180" type="curve"/>
      <point x="-24" y="-180" type="line"/>
      <point x="-64" y="-250" type="line"/>
      <point x="235" y="-250" type="line" smooth="yes"/>
      <point x="241" y="-250"/>
      <point x="256" y="-250"/>
      <point x="256" y="-229" type="curve"/>
      <point x="256" y="-90"/>
      <point x="186" y="-70"/>
    </contour>
    <contour>
      <point x="0" y="-140" type="line"/>
      <point x="28" y="-140" type="line"/>
      <point x="179" y="27" type="line"/>
      <point x="190" y="61" type="line"/>
      <point x="183" y="61" type="line"/>
    </contour>
  </outline>
</glyph>
<glyph name="fehDotless-ar" format="2">
  <advance width="600"/>
  <unicode hex="06A1"/>
  <outline>
    <component base="fehDotless-ar.init" xOffset="360"/>
    <contour>
      <point x="0" y="0" type="line"/>
      <point x="350" y="0" type="line"/>
      <point x="350" y="70" type="line"/>
      <point x="100" y="70" type="line"/>
      <point x="77.5585" y="70"/>
      <point x="62.1486" y="76.8181"/>
      <point x="52" y="90" type="curve"/>
    </contour>
  </outline>
</glyph>
<glyph name="noonghunna-ar" format="2">
  <advance width="270"/>
  <unicode hex="06BA"/>
  <anchor x="90" y="215.038" name="top"/>
  <outline>
    <contour>
      <point x="-50" y="-250" type="line"/>
      <point x="192" y="-250" type="line" smooth="yes"/>
      <point x="215" y="-250"/>
      <point x="230" y="-235"/>
      <point x="230" y="-210" type="curve" smooth="yes"/>
      <point x="230" y="60" type="line"/>
      <point x="150" y="60" type="line"/>
      <point x="150" y="-180" type="line"/>
      <point x="50" y="-180" type="line"/>
      <point x="29.8474" y="-180"/>
      <point x="13.1837" y="-174.526"/>
      <point x="2" y="-160" type="curve"/>
    </contour>
    <contour>
      <point x="110.1" y="70" type="line"/>
      <point x="182.142" y="-2.0284" type="line"/>
      <point x="229.606" y="26.9062" type="line"/>
      <point x="229.606" y="60" type="line"/>
      <point x="150" y="140.038" type="line"/>
    </contour>
  </outline>
</glyph>
<glyph name=".notdef" format="2">
  <advance width="330"/>
  <outline>
    <contour>
      <point x="40" y="450" type="line"/>
      <point x="290" y="450" type="line"/>
      <point x="290" y="0" type="line"/>
      <point x="40" y="0" type="line"/>
    </contour>
    <contour>
      <point x="80" y="410" type="line"/>
      <point x="80" y="40" type="line"/>
      <point x="250" y="40" type="line"/>
      <point x="250" y="410" type="line"/>
    </contour>
    <contour>
      <point x="232" y="430" type="line"/>
      <point x="266" y="407.973" type="line"/>
      <point x="98" y="21" type="line"/>
      <point x="61.0135" y="37.027" type="line"/>
    </contour>
    <contour>
      <point x="95.0135" y="430" type="line"/>
      <point x="266" y="37.027" type="line"/>
      <point x="229.014" y="21" type="line"/>
      <point x="61.0135" y="407.973" type="line"/>
    </contour>
  </outline>
</glyph>
<glyph name="ain-ar.fina" format="2">
  <advance width="304"/>
  <anchor x="151" y="345" name="top"/>
  <outline>
    <contour>
      <point x="363.812" y="-207" type="curve"/>
      <point x="297.512" y="-218.42"/>
      <point x="258.261" y="-221.082"/>
      <point x="223.633" y="-217.835" type="curve" smooth="yes"/>
      <point x="117.872" y="-207.841"/>
      <point x="80.0127" y="-144"/>
      <point x="80.0127" y="-89.0029" type="curve" smooth="yes"/>
      <point x="80.0127" y="-26"/>
      <point x="129.696" y="0.1542"/>
      <point x="169.601" y="0" type="curve"/>
      <point x="149.648" y="70.3782" type="line"/>
      <point x="53.9352" y="69.6915"/>
      <point x="-0.961365" y="-7.99751"/>
      <point x="0.0127352" y="-91.4803" type="curve" smooth="yes"/>
      <point x="1.20824" y="-193.996"/>
      <point x="85.9648" y="-250.338"/>
      <point x="198.233" y="-250.094" type="curve" smooth="yes"/>
      <point x="241.684" y="-250"/>
      <point x="288.362" y="-241.609"/>
    </contour>
    <contour>
      <point x="303.82" y="70" type="line"/>
      <point x="150.225" y="70" type="line"/>
      <point x="150.225" y="0" type="line"/>
      <point x="303.82" y="0" type="line"/>
    </contour>
    <contour>
      <point x="62" y="158.999" type="line"/>
      <point x="190.993" y="30.0072" type="line"/>
      <point x="270.585" y="30.0067" type="line"/>
      <point x="287.243" y="46.5686" type="line"/>
      <point x="104.488" y="229.709" type="line"/>
    </contour>
    <contour>
      <point x="183.965" y="250" type="line"/>
      <point x="183.965" y="11" type="line"/>
      <point x="264" y="11" type="line"/>
      <point x="264" y="270" type="line"/>
    </contour>
  </outline>
</glyph>
<glyph name="ain-ar.init" format="2">
  <advance width="330"/>
  <anchor x="135" y="305" name="top"/>
  <outline>
    <contour>
      <point x="290" y="70" type="line"/>
      <point x="-20" y="70" type="line"/>
      <point x="-20" y="0" type="line"/>
      <point x="249" y="0" type="line"/>
    </contour>
    <contour>
      <point x="130" y="70" type="line"/>
      <point x="83.0551" y="102.64"/>
      <point x="66.2886" y="128.377"/>
      <point x="66.2886" y="148.168" type="curve" smooth="yes"/>
      <point x="66.2886" y="187.05"/>
      <point x="131" y="218"/>
      <point x="151.427" y="227.334" type="curve"/>
      <point x="150" y="230" type="line"/>
      <point x="97.0189" y="203.661"/>
      <point x="3.54187" y="157.404"/>
      <point x="3.54187" y="108.914" type="curve" smooth="yes"/>
      <point x="3.54187" y="95.9896"/>
      <point x="10.1824" y="82.9067"/>
      <point x="26" y="70" type="curve"/>
      <point x="26" y="50" type="line"/>
      <point x="130" y="50" type="line"/>
    </contour>
  </outline>
</glyph>
<glyph name="ain-ar.medi" format="2">
  <advance width="242"/>
  <anchor x="111" y="345" name="top"/>
  <outline>
    <contour>
      <point x="242" y="70" type="line"/>
      <point x="-20" y="70" type="line"/>
      <point x="-20" y="0" type="line"/>
      <point x="242" y="0" type="line"/>
    </contour>
    <contour>
      <point x="0" y="158.999" type="line"/>
      <point x="128.991" y="30.0072" type="line"/>
      <point x="209.005" y="30.0067" type="line"/>
      <point x="225.567" y="46.5686" type="line"/>
      <point x="42.4264" y="229.709" type="line"/>
    </contour>
    <contour>
      <point x="122" y="250" type="line"/>
      <point x="122" y="11" type="line"/>
      <point x="202" y="11" type="line"/>
      <point x="202" y="270" type="line"/>
    </contour>
  </outline>
</glyph>
<glyph name="alef-ar.1" format="2">
  <advance width="280"/>
  <outline>
    <contour>
      <point x="80" y="560" type="line"/>
      <point x="0" y="540" type="line"/>
      <point x="0" y="100" type="line"/>
      <point x="0" y="34.3539"/>
      <point x="51.7647" y="0.186348"/>
      <point x="113.096" y="0.186348" type="curve" smooth="yes"/>
      <point x="155.47" y="0.186348"/>
      <point x="202.409" y="16.4953"/>
      <point x="240" y="50" type="curve"/>
      <point x="216.041" y="42.0135"/>
      <point x="189.428" y="37.162"/>
      <point x="164.895" y="37.162" type="curve" smooth="yes"/>
      <point x="118.775" y="37.162"/>
      <point x="80" y="54.3067"/>
      <point x="80" y="100" type="curve"/>
    </contour>
  </outline>
</glyph>
<glyph name="alef-ar.2" format="2">
  <advance width="360"/>
  <outline>
    <contour>
      <point x="80" y="560" type="line"/>
      <point x="0" y="540" type="line"/>
      <point x="0" y="140" type="line"/>
      <point x="0" y="44.8486"/>
      <point x="75.8223" y="0.24548"/>
      <point x="157.661" y="0.24548" type="curve" smooth="yes"/>
      <point x="217.736" y="0.24548"/>
      <point x="281.054" y="24.2809"/>
      <point x="320" y="70" type="curve"/>
      <point x="292.196" y="58.3141"/>
      <point x="247.829" y="48.4144"/>
      <point x="204.762" y="48.4144" type="curve" smooth="yes"/>
      <point x="140.954" y="48.4144"/>
      <point x="80" y="70.1465"/>
      <point x="80" y="140" type="curve"/>
    </contour>
  </outline>
</glyph>
<glyph name="alef-ar.3" format="2">
  <advance width="120"/>
  <outline>
    <contour>
      <point x="-40" y="20" type="curve"/>
      <point x="-30" y="10"/>
      <point x="-10" y="0"/>
      <point x="11.9615" y="0" type="curve" smooth="yes"/>
      <point x="50" y="0"/>
      <point x="80" y="30"/>
      <point x="80" y="80" type="curve" smooth="yes"/>
      <point x="80" y="560" type="line"/>
      <point x="0" y="540" type="line"/>
      <point x="0" y="70" type="line" smooth="yes"/>
      <point x="0" y="40"/>
      <point x="-13" y="20"/>
    </contour>
  </outline>
</glyph>
<glyph name="alef-ar.fina" format="2">
  <advance width="120"/>
  <outline>
    <contour>
      <point x="80" y="560" type="line"/>
      <point x="0" y="540" type="line"/>
      <point x="0" y="40" type="line"/>
      <point x="0" y="15"/>
      <point x="15" y="0"/>
      <point x="38" y="0" type="curve"/>
      <point x="120" y="0" type="line"/>
      <point x="120" y="70" type="line"/>
      <point x="90" y="70" type="line"/>
      <point x="83" y="70"/>
      <point x="80" y="73"/>
      <point x="80" y="80" type="curve"/>
    </contour>
  </outline>
</glyph>
<glyph name="alefMaksura-ar.2" format="2">
  <advance width="610"/>
  <anchor x="101" y="228.119" name="top"/>
  <anchor x="321.5" y="-185" name="bottom"/>
  <outline>
    <contour>
      <point x="33" y="-5" type="curve" smooth="yes"/>
      <point x="33" y="-92"/>
      <point x="93" y="-110"/>
      <point x="170" y="-110" type="curve"/>
      <point x="182" y="-40" type="line"/>
      <point x="150" y="-40"/>
      <point x="138" y="-37"/>
      <point x="115" y="-14" type="curve" smooth="yes"/>
      <point x="84" y="17" type="line" smooth="yes"/>
      <point x="67" y="34"/>
      <point x="76" y="81"/>
      <point x="90" y="67" type="curve" smooth="yes"/>
      <point x="142" y="15" type="line" smooth="yes"/>
      <point x="152" y="5"/>
      <point x="161" y="0"/>
      <point x="173" y="0" type="curve" smooth="yes"/>
      <point x="189" y="0"/>
      <point x="225" y="10"/>
      <point x="235" y="90" type="curve"/>
      <point x="232" y="75"/>
      <point x="218" y="70"/>
      <point x="209" y="70" type="curve" smooth="yes"/>
      <point x="200" y="70"/>
      <point x="195" y="75"/>
      <point x="191" y="79" type="curve" smooth="yes"/>
      <point x="127" y="143" type="line" smooth="yes"/>
      <point x="77" y="193"/>
      <point x="33" y="44"/>
    </contour>
    <contour>
      <point x="164" y="-110" type="line"/>
      <point x="569" y="-110" type="line"/>
      <point x="610" y="-40" type="line"/>
      <point x="174" y="-40" type="line"/>
    </contour>
  </outline>
  <guideline angle="0" x="0" y="155"/>
  <guideline angle="0" x="0" y="-110"/>
  <guideline angle="0" x="0" y="70"/>
</glyph>
<glyph name="alefMaksura-ar.fina" format="2">
  <advance width="240"/>
  <anchor x="120" y="228.119" name="top"/>
  <anchor x="120" y="-295" name="bottom"/>
  <outline>
    <contour>
      <point x="160" y="-104" type="line"/>
      <point x="160" y="-150" type="line"/>
      <point x="100" y="-150" type="line" smooth="yes"/>
      <point x="80" y="-150"/>
      <point x="63" y="-145"/>
      <point x="52" y="-130" type="curve"/>
      <point x="0" y="-220" type="line"/>
      <point x="202" y="-220" type="line" smooth="yes"/>
      <point x="225" y="-220"/>
      <point x="240" y="-205"/>
      <point x="240" y="-180" type="curve" smooth="yes"/>
      <point x="240" y="-84" type="line" smooth="yes"/>
      <point x="240" y="-59"/>
      <point x="227" y="-43"/>
      <point x="192" y="-43" type="curve"/>
    </contour>
    <contour>
      <point x="33" y="-5" type="curve" smooth="yes"/>
      <point x="33" y="-92"/>
      <point x="93" y="-110"/>
      <point x="170" y="-110" type="curve"/>
      <point x="192" y="-43" type="line"/>
      <point x="160" y="-43"/>
      <point x="138" y="-37"/>
      <point x="115" y="-14" type="curve" smooth="yes"/>
      <point x="84" y="17" type="line" smooth="yes"/>
      <point x="67" y="34"/>
      <point x="76" y="81"/>
      <point x="90" y="67" type="curve" smooth="yes"/>
      <point x="142" y="15" type="line" smooth="yes"/>
      <point x="152" y="5"/>
      <point x="161" y="0"/>
      <point x="173" y="0" type="curve" smooth="yes"/>
      <point x="240" y="0" type="line"/>
      <point x="240" y="70" type="line"/>
      <point x="209" y="70" type="line"/>
      <point x="200" y="70"/>
      <point x="195" y="75"/>
      <point x="191" y="79" type="curve" smooth="yes"/>
      <point x="127" y="143" type="line" smooth="yes"/>
      <point x="77" y="193"/>
      <point x="33" y="44"/>
    </contour>
  </outline>
  <guideline angle="0" x="0" y="155"/>
  <guideline angle="0" x="0" y="-110"/>
  <guideline angle="0" x="0" y="70"/>
</glyph>
<glyph name="behDotless-ar.high.1" format="2">
  <advance width="120"/>
  <outline>
    <component base="behDotless-ar.medi"/>
    <contour>
      <point x="0" y="240" type="line"/>
      <point x="80" y="260" type="line"/>
      <point x="80" y="210" type="line"/>
      <point x="0" y="190" type="line"/>
    </contour>
  </outline>
</glyph>
<glyph name="behDotless-ar.high" format="2">
  <advance width="120"/>
  <outline>
    <component base="behDotless-ar.medi"/>
    <contour>
      <point x="0" y="250" type="line"/>
      <point x="80" y="270" type="line"/>
      <point x="80" y="220" type="line"/>
      <point x="0" y="200" type="line"/>
    </contour>
  </outline>
</glyph>
<glyph name="behDotless-ar.init" format="2">
  <advance width="120"/>
  <anchor x="30" y="300" name="top"/>
  <anchor x="30" y="-75" name="bottom"/>
  <outline>
    <contour>
      <point x="0" y="210" type="line"/>
      <point x="0" y="70" type="line"/>
      <point x="-20" y="70" type="line"/>
      <point x="-20" y="0" type="line"/>
      <point x="59" y="0" type="line"/>
      <point x="65" y="0"/>
      <point x="80" y="0"/>
      <point x="80" y="11" type="curve"/>
      <point x="80" y="230" type="line"/>
    </contour>
  </outline>
</glyph>
<glyph name="behDotless-ar.init.hah" format="2">
  <advance width="80"/>
  <anchor x="30" y="235" name="top"/>
  <anchor x="30" y="-75" name="bottom"/>
  <outline>
    <contour>
      <point x="0" y="140" type="line"/>
      <point x="0" y="70" type="line" smooth="yes"/>
      <point x="0" y="51.3306"/>
      <point x="-0.2" y="25.3649"/>
      <point x="-20" y="24.6965" type="curve"/>
      <point x="-20" y="0" type="line"/>
      <point x="36.7744" y="0"/>
      <point x="80" y="30.1091"/>
      <point x="80" y="70" type="curve" smooth="yes"/>
      <point x="80" y="160" type="line"/>
    </contour>
  </outline>
</glyph>
<glyph name="behDotless-ar.medi" format="2">
  <advance width="120"/>
  <outline>
    <component base="behDotless-ar.init"/>
    <contour>
      <point x="80" y="110" type="line" smooth="yes"/>
      <point x="80" y="88"/>
      <point x="98" y="70"/>
      <point x="120" y="70" type="curve"/>
      <point x="120" y="0" type="line"/>
      <point x="40" y="0" type="line"/>
      <point x="40" y="110" type="line"/>
    </contour>
  </outline>
</glyph>
<glyph name="dal-ar.fina" format="2">
  <advance width="600"/>
  <outline>
    <component base="dal-ar"/>
    <contour>
      <point x="600.237" y="70" type="line"/>
      <point x="499.237" y="70" type="line"/>
      <point x="499.237" y="0" type="line"/>
      <point x="600.237" y="0" type="line"/>
    </contour>
  </outline>
</glyph>
<glyph name="dotabove" format="2">
  <advance width="80"/>
  <anchor x="40" y="-40" name="_top"/>
  <outline>
    <contour>
      <point x="0" y="-25.2132" type="line"/>
      <point x="65.612" y="40.3988" type="line"/>
      <point x="79.7541" y="26.2566" type="line"/>
      <point x="14.1421" y="-39.3553" type="line"/>
    </contour>
  </outline>
</glyph>
<glyph name="fehDotless-ar.2" format="2">
  <advance width="640"/>
  <outline>
    <component base="fehDotless-ar.init" xOffset="400"/>
    <contour>
      <point x="0" y="0" type="line"/>
      <point x="390" y="0" type="line"/>
      <point x="390" y="70" type="line"/>
      <point x="100" y="70" type="line"/>
      <point x="77.5585" y="70"/>
      <point x="62.1486" y="76.8181"/>
      <point x="52" y="90" type="curve"/>
    </contour>
  </outline>
</glyph>
<glyph name="fehDotless-ar.3" format="2">
  <advance width="640"/>
  <outline>
    <component base="fehDotless-ar.init.1" xOffset="400"/>
    <contour>
      <point x="390" y="70" type="line"/>
      <point x="100" y="70" type="line"/>
      <point x="79.8474" y="70"/>
      <point x="63.1837" y="75.4737"/>
      <point x="52" y="90" type="curve"/>
      <point x="0" y="0" type="line"/>
      <point x="390" y="0" type="line"/>
    </contour>
  </outline>
</glyph>
<glyph name="fehDotless-ar.fina.1" format="2">
  <advance width="600"/>
  <outline>
    <component base="fehDotless-ar.1"/>
    <contour>
      <point x="600" y="70" type="line"/>
      <point x="500" y="70" type="line"/>
      <point x="500" y="0" type="line"/>
      <point x="600" y="0" type="line"/>
    </contour>
  </outline>
</glyph>
<glyph name="fehDotless-ar.fina.2" format="2">
  <advance width="640"/>
  <outline>
    <component base="fehDotless-ar.2"/>
    <contour>
      <point x="640" y="70" type="line"/>
      <point x="540" y="70" type="line"/>
      <point x="540" y="0" type="line"/>
      <point x="640" y="0" type="line"/>
    </contour>
  </outline>
</glyph>
<glyph name="fehDotless-ar.fina" format="2">
  <advance width="600"/>
  <outline>
    <component base="fehDotless-ar"/>
    <contour>
      <point x="600" y="70" type="line"/>
      <point x="500" y="70" type="line"/>
      <point x="500" y="0" type="line"/>
      <point x="600" y="0" type="line"/>
    </contour>
  </outline>
</glyph>
<glyph name="fehDotless-ar.init.1" format="2">
  <advance width="223.12"/>
  <anchor x="90" y="365" name="top"/>
  <outline>
    <contour>
      <point x="80.0027" y="200" type="curve" smooth="yes"/>
      <point x="80.0027" y="211.038"/>
      <point x="88.9644" y="220"/>
      <point x="100.003" y="220" type="curve" smooth="yes"/>
      <point x="111.041" y="220"/>
      <point x="120.003" y="211.038"/>
      <point x="120.003" y="200" type="curve" smooth="yes"/>
      <point x="120.003" y="188.962"/>
      <point x="111.041" y="180"/>
      <point x="100.003" y="180" type="curve" smooth="yes"/>
      <point x="88.9644" y="180"/>
      <point x="80.0027" y="188.962"/>
    </contour>
    <contour>
      <point x="-0.0195" y="200" type="curve" smooth="yes"/>
      <point x="-0.0195" y="150.328"/>
      <point x="44.789" y="110"/>
      <point x="99.9805" y="110" type="curve" smooth="yes"/>
      <point x="155.172" y="110"/>
      <point x="199.981" y="150.328"/>
      <point x="199.981" y="200" type="curve" smooth="yes"/>
      <point x="199.981" y="249.672"/>
      <point x="155.172" y="290"/>
      <point x="99.9805" y="290" type="curve" smooth="yes"/>
      <point x="44.789" y="290"/>
      <point x="-0.0195" y="249.672"/>
    </contour>
    <contour>
      <point x="120" y="210" type="line"/>
      <point x="120" y="70" type="line"/>
      <point x="-20" y="70" type="line"/>
      <point x="-20" y="0" type="line"/>
      <point x="179" y="0" type="line"/>
      <point x="185" y="0"/>
      <point x="200" y="0"/>
      <point x="200" y="11" type="curve"/>
      <point x="200" y="200" type="line"/>
    </contour>
  </outline>
</glyph>
<glyph name="fehDotless-ar.init" format="2">
  <advance width="223"/>
  <anchor x="96.6447" y="365" name="top"/>
  <outline>
    <contour>
      <point x="-20" y="0" type="line"/>
      <point x="176" y="0" type="line" smooth="yes"/>
      <point x="199.799" y="0"/>
      <point x="213.289" y="37.1307"/>
      <point x="213.289" y="101.673" type="curve" smooth="yes"/>
      <point x="213.289" y="178.852"/>
      <point x="194" y="290"/>
      <point x="100.88" y="290" type="curve" smooth="yes"/>
      <point x="44.789" y="290"/>
      <point x="-0.0195007" y="249.672"/>
      <point x="-0.0195007" y="200" type="curve" smooth="yes"/>
      <point x="-0.0195007" y="150.328"/>
      <point x="44.789" y="110"/>
      <point x="99.9763" y="110" type="curve" smooth="yes"/>
      <point x="110.259" y="110"/>
      <point x="120.391" y="111.4"/>
      <point x="130.105" y="114.162" type="curve"/>
      <point x="131.509" y="106.753"/>
      <point x="132.265" y="99.2738"/>
      <point x="132.265" y="91.8007" type="curve" smooth="yes"/>
      <point x="132.265" y="84.5043"/>
      <point x="131.544" y="77.2138"/>
      <point x="130" y="70" type="curve"/>
      <point x="-20" y="70" type="line"/>
    </contour>
    <contour>
      <point x="80.0027" y="200" type="curve" smooth="yes"/>
      <point x="80.0027" y="211.038"/>
      <point x="88.9644" y="220"/>
      <point x="100.003" y="220" type="curve" smooth="yes"/>
      <point x="111.041" y="220"/>
      <point x="120.003" y="211.038"/>
      <point x="120.003" y="200" type="curve" smooth="yes"/>
      <point x="120.003" y="188.962"/>
      <point x="111.041" y="180"/>
      <point x="100.003" y="180" type="curve" smooth="yes"/>
      <point x="88.9644" y="180"/>
      <point x="80.0027" y="188.962"/>
    </contour>
  </outline>
</glyph>
<glyph name="fehDotless-ar.medi" format="2">
  <advance width="242"/>
  <anchor x="101" y="385.1" name="top"/>
  <outline>
    <contour>
      <point x="242" y="70" type="line"/>
      <point x="-20" y="70" type="line"/>
      <point x="-20" y="0" type="line"/>
      <point x="242" y="0" type="line"/>
    </contour>
    <contour>
      <point x="205.95" y="206.8" type="line" smooth="yes"/>
      <point x="205.95" y="263.813"/>
      <point x="159.613" y="310.1"/>
      <point x="102.6" y="310.1" type="curve" smooth="yes"/>
      <point x="45.5872" y="310.1"/>
      <point x="-0.699993" y="263.813"/>
      <point x="-0.699993" y="206.8" type="curve" smooth="yes"/>
      <point x="-0.699993" y="178.574"/>
      <point x="10.5372" y="152.869"/>
      <point x="29.0212" y="134.323" type="curve" smooth="yes"/>
      <point x="132.991" y="30.0072" type="line"/>
      <point x="213.005" y="30.0067" type="line"/>
      <point x="229.567" y="46.5686" type="line"/>
      <point x="81.8261" y="194.422" type="line" smooth="yes"/>
      <point x="76.7992" y="199.453"/>
      <point x="73.3" y="206.135"/>
      <point x="73.3" y="213.8" type="curve" smooth="yes"/>
      <point x="73.3" y="228.315"/>
      <point x="85.0846" y="240.1"/>
      <point x="99.6" y="240.1" type="curve" smooth="yes"/>
      <point x="114.115" y="240.1"/>
      <point x="125.95" y="228.315"/>
      <point x="125.95" y="213.8" type="curve" smooth="yes"/>
      <point x="125.95" y="11" type="line"/>
      <point x="205.95" y="11" type="line"/>
    </contour>
  </outline>
</glyph>
<glyph name="hah-ar.1" format="2">
  <advance width="660"/>
  <anchor x="310" y="-185" name="bottom"/>
  <outline>
    <component base="hah-ar.init.1" xOffset="240"/>
    <contour>
      <point x="90" y="70" type="line" smooth="yes"/>
      <point x="40" y="70"/>
      <point x="0" y="30"/>
      <point x="0" y="-20" type="curve" smooth="yes"/>
      <point x="0" y="-70"/>
      <point x="40" y="-110"/>
      <point x="90" y="-110" type="curve" smooth="yes"/>
      <point x="495" y="-110" type="line"/>
      <point x="536" y="-40" type="line"/>
      <point x="100" y="-40" type="line" smooth="yes"/>
      <point x="89" y="-40"/>
      <point x="80" y="-31"/>
      <point x="80" y="-20" type="curve" smooth="yes"/>
      <point x="80" y="-9"/>
      <point x="89" y="0"/>
      <point x="100" y="0" type="curve" smooth="yes"/>
      <point x="239.5" y="0" type="line"/>
      <point x="239.5" y="70" type="line"/>
    </contour>
    <contour>
      <point x="556" y="-40" type="line"/>
      <point x="486" y="-40" type="line"/>
      <point x="486" y="-110" type="line"/>
      <point x="515" y="-110" type="line"/>
    </contour>
  </outline>
</glyph>
<glyph name="hah-ar.fina" format="2">
  <advance width="371"/>
  <outline>
    <contour>
      <point x="363.812" y="-207" type="curve"/>
      <point x="314.66" y="-215.466"/>
      <point x="280.392" y="-219.119"/>
      <point x="253.995" y="-219.119" type="curve" smooth="yes"/>
      <point x="171.187" y="-219.119"/>
      <point x="79.8118" y="-183.171"/>
      <point x="79.8118" y="-92.8285" type="curve" smooth="yes"/>
      <point x="79.8118" y="-26"/>
      <point x="129.812" y="0"/>
      <point x="169.971" y="0" type="curve"/>
      <point x="154.592" y="70" type="line"/>
      <point x="149.891" y="70" type="line"/>
      <point x="53.7998" y="70"/>
      <point x="0.0126934" y="-7.99749"/>
      <point x="0.0126934" y="-90.1944" type="curve" smooth="yes"/>
      <point x="0.0126934" y="-194.003"/>
      <point x="85.8018" y="-250.094"/>
      <point x="198.61" y="-250.094" type="curve" smooth="yes"/>
      <point x="241.812" y="-250.094"/>
      <point x="288.362" y="-241.609"/>
    </contour>
    <contour>
      <point x="371.049" y="70" type="line"/>
      <point x="150.049" y="70" type="line"/>
      <point x="150.049" y="0" type="line"/>
      <point x="371.049" y="0" type="line"/>
    </contour>
    <contour>
      <point x="179.094" y="230" type="line"/>
      <point x="119.812" y="172.679" type="line"/>
      <point x="311.408" y="-159.846" type="line"/>
      <point x="370.69" y="-102.526" type="line"/>
    </contour>
  </outline>
</glyph>
<glyph name="hah-ar.init.1" format="2">
  <advance width="420"/>
  <anchor x="180" y="284.841" name="top"/>
  <anchor x="180" y="-75" name="bottom"/>
  <outline>
    <component base="hah-ar.init"/>
    <contour>
      <point x="380" y="70" type="line"/>
      <point x="310" y="70" type="line"/>
      <point x="310" y="0" type="line"/>
      <point x="339" y="0" type="line"/>
    </contour>
  </outline>
</glyph>
<glyph name="hah-ar.init.2" format="2">
  <advance width="440"/>
  <anchor x="190" y="284.841" name="top"/>
  <anchor x="190" y="-75" name="bottom"/>
  <outline>
    <component base="hah-ar.init"/>
    <contour>
      <point x="400" y="70" type="line"/>
      <point x="300" y="70" type="line"/>
      <point x="300" y="0" type="line"/>
      <point x="359" y="0" type="line"/>
    </contour>
  </outline>
</glyph>
<glyph name="hah-ar.init" format="2">
  <advance width="400"/>
  <anchor x="170" y="285" name="top"/>
  <anchor x="170" y="-70" name="bottom"/>
  <outline>
    <contour>
      <point x="360" y="70" type="line"/>
      <point x="-20" y="70" type="line"/>
      <point x="-20" y="0" type="line"/>
      <point x="319" y="0" type="line"/>
    </contour>
    <contour>
      <point x="62.0662" y="70" type="curve"/>
      <point x="62.0662" y="50" type="line"/>
      <point x="223" y="50" type="line"/>
      <point x="223" y="70" type="line"/>
      <point x="165.248" y="70"/>
      <point x="103.552" y="135.117"/>
      <point x="42.7493" y="209.841" type="curve"/>
      <point x="0" y="140" type="line"/>
      <point x="18.9112" y="111.75"/>
      <point x="46.601" y="83.1621"/>
    </contour>
  </outline>
</glyph>
<glyph name="hah-ar.medi" format="2">
  <advance width="191"/>
  <anchor x="115.737" y="305" name="top"/>
  <anchor x="115.737" y="-234.846" name="bottom"/>
  <outline>
    <contour>
      <point x="81.2369" y="70" type="line"/>
      <point x="-19.7631" y="70" type="line"/>
      <point x="-19.7631" y="0" type="line"/>
      <point x="81.2369" y="0" type="line"/>
    </contour>
    <contour>
      <point x="251.237" y="70" type="line"/>
      <point x="30.2369" y="70" type="line"/>
      <point x="30.2369" y="0" type="line"/>
      <point x="251.237" y="0" type="line"/>
    </contour>
    <contour>
      <point x="59.282" y="230" type="line"/>
      <point x="0" y="172.679" type="line"/>
      <point x="191.596" y="-159.846" type="line"/>
      <point x="250.878" y="-102.526" type="line"/>
    </contour>
  </outline>
</glyph>
<glyph name="heh-ar.2" format="2">
  <advance width="239.981"/>
  <anchor x="50.2903" y="317.8" name="top"/>
  <outline>
    <contour>
      <point x="80.0028" y="90" type="curve" smooth="yes"/>
      <point x="80.0028" y="101.038"/>
      <point x="88.9644" y="110"/>
      <point x="100.003" y="110" type="curve" smooth="yes"/>
      <point x="111.041" y="110"/>
      <point x="120.003" y="101.038"/>
      <point x="120.003" y="90" type="curve" smooth="yes"/>
      <point x="120.003" y="78.9617"/>
      <point x="111.041" y="70"/>
      <point x="100.003" y="70" type="curve" smooth="yes"/>
      <point x="88.9644" y="70"/>
      <point x="80.0028" y="78.9617"/>
    </contour>
    <contour>
      <point x="-0.0195" y="90" type="curve" smooth="yes"/>
      <point x="-0.0195" y="30"/>
      <point x="44.789" y="0"/>
      <point x="99.9805" y="0" type="curve" smooth="yes"/>
      <point x="165" y="0"/>
      <point x="199.981" y="30"/>
      <point x="199.981" y="90" type="curve" smooth="yes"/>
      <point x="199.981" y="139.672"/>
      <point x="155.172" y="180"/>
      <point x="99.9805" y="180" type="curve" smooth="yes"/>
      <point x="44.789" y="180"/>
      <point x="-0.0195007" y="140"/>
    </contour>
    <contour>
      <point x="200.011" y="220.011" type="line"/>
      <point x="180.011" y="185.011"/>
      <point x="140" y="180.031"/>
      <point x="100" y="180.031" type="curve"/>
      <point x="200.011" y="90" type="line"/>
    </contour>
    <contour>
      <point x="200" y="110" type="line"/>
      <point x="200" y="560" type="line"/>
      <point x="120" y="540" type="line"/>
      <point x="120" y="110" type="line"/>
    </contour>
  </outline>
</glyph>
<glyph name="heh-ar.fina.1" format="2">
  <advance width="239.981"/>
  <outline>
    <component base="heh-ar.1"/>
    <contour>
      <point x="240" y="70" type="line"/>
      <point x="100" y="70" type="line"/>
      <point x="100" y="0" type="line"/>
      <point x="240" y="0" type="line"/>
    </contour>
    <contour>
      <point x="200" y="10" type="line"/>
      <point x="200" y="150" type="line"/>
      <point x="120" y="150" type="line"/>
      <point x="120" y="10" type="line"/>
    </contour>
  </outline>
</glyph>
<glyph name="heh-ar.fina.2" format="2">
  <advance width="239.981"/>
  <outline>
    <component base="heh-ar.2"/>
    <contour>
      <point x="240" y="70" type="line"/>
      <point x="100" y="70" type="line"/>
      <point x="100" y="0" type="line"/>
      <point x="240" y="0" type="line"/>
    </contour>
    <contour>
      <point x="200" y="10" type="line"/>
      <point x="200" y="150" type="line"/>
      <point x="120" y="150" type="line"/>
      <point x="120" y="10" type="line"/>
    </contour>
  </outline>
</glyph>
<glyph name="heh-ar.init.1" format="2">
  <advance width="239.981"/>
  <outline>
    <component base="heh-ar.init"/>
    <contour>
      <point x="120" y="231" type="line"/>
      <point x="120" y="160" type="line"/>
      <point x="200" y="191" type="line"/>
      <point x="200" y="251" type="line"/>
    </contour>
  </outline>
</glyph>
<glyph name="heh-ar.init.2" format="2">
  <advance width="239.981"/>
  <outline>
    <contour>
      <point x="80.0028" y="150" type="curve" smooth="yes"/>
      <point x="80.0028" y="161.038"/>
      <point x="88.9644" y="170"/>
      <point x="100.003" y="170" type="curve" smooth="yes"/>
      <point x="111.041" y="170"/>
      <point x="120.003" y="161.038"/>
      <point x="120.003" y="150" type="curve" smooth="yes"/>
      <point x="120.003" y="138.962"/>
      <point x="111.041" y="130"/>
      <point x="100.003" y="130" type="curve" smooth="yes"/>
      <point x="88.9644" y="130"/>
      <point x="80.0028" y="138.962"/>
    </contour>
    <contour>
      <point x="-0.0195" y="150" type="curve" smooth="yes"/>
      <point x="-0.0195" y="124.829"/>
      <point x="11.4869" y="102.057"/>
      <point x="30.0199" y="85.717" type="curve" smooth="yes"/>
      <point x="48.0597" y="69.8118"/>
      <point x="72.7765" y="114.626"/>
      <point x="100" y="114.626" type="curve" smooth="yes"/>
      <point x="129.876" y="114.626"/>
      <point x="153.391" y="66.3341"/>
      <point x="170.103" y="79.0024" type="curve" smooth="yes"/>
      <point x="189.761" y="93.904"/>
      <point x="199.981" y="117.57"/>
      <point x="199.981" y="150" type="curve" smooth="yes"/>
      <point x="199.981" y="199.672"/>
      <point x="155.172" y="240"/>
      <point x="99.9805" y="240" type="curve" smooth="yes"/>
      <point x="44.789" y="240"/>
      <point x="-0.0195007" y="199.672"/>
    </contour>
    <contour>
      <point x="200.011" y="275" type="line"/>
      <point x="180.011" y="240"/>
      <point x="140" y="240.031"/>
      <point x="100" y="240.031" type="curve"/>
      <point x="200.011" y="40" type="line"/>
    </contour>
    <contour>
      <point x="130" y="70" type="line"/>
      <point x="-20" y="70" type="line"/>
      <point x="-20" y="0" type="line"/>
      <point x="130" y="0" type="line"/>
    </contour>
    <contour>
      <point x="80.0028" y="90" type="curve" smooth="yes"/>
      <point x="80.0028" y="101.038"/>
      <point x="88.9644" y="110"/>
      <point x="100.003" y="110" type="curve" smooth="yes"/>
      <point x="111.041" y="110"/>
      <point x="120.003" y="101.038"/>
      <point x="120.003" y="90" type="curve" smooth="yes"/>
      <point x="120.003" y="78.9617"/>
      <point x="111.041" y="70"/>
      <point x="100.003" y="70" type="curve" smooth="yes"/>
      <point x="88.9644" y="70"/>
      <point x="80.0028" y="78.9617"/>
    </contour>
    <contour>
      <point x="-0.0195" y="90" type="curve" smooth="yes"/>
      <point x="-0.0195" y="40.3277"/>
      <point x="44.789" y="0"/>
      <point x="99.9805" y="0" type="curve" smooth="yes"/>
      <point x="165" y="0"/>
      <point x="199.981" y="30"/>
      <point x="199.981" y="90" type="curve" smooth="yes"/>
      <point x="199.981" y="115.098"/>
      <point x="188.541" y="137.81"/>
      <point x="170.103" y="154.14" type="curve" smooth="yes"/>
      <point x="152.049" y="170.129"/>
      <point x="127.305" y="125"/>
      <point x="100" y="125" type="curve" smooth="yes"/>
      <point x="72.6947" y="125"/>
      <point x="47.9114" y="170.129"/>
      <point x="29.8576" y="154.14" type="curve" smooth="yes"/>
      <point x="11.4197" y="137.81"/>
      <point x="-0.0194998" y="115.098"/>
    </contour>
    <contour>
      <point x="120" y="210" type="line"/>
      <point x="120" y="70" type="line"/>
      <point x="100" y="70" type="line"/>
      <point x="100" y="0" type="line"/>
      <point x="179" y="0" type="line"/>
      <point x="185" y="0"/>
      <point x="200" y="0"/>
      <point x="200" y="11" type="curve"/>
      <point x="200" y="230" type="line"/>
    </contour>
  </outline>
</glyph>
<glyph name="heh-ar.init.3" format="2">
  <advance width="239.981"/>
  <outline>
    <component base="heh-ar.init.2"/>
    <contour>
      <point x="120" y="290" type="line"/>
      <point x="120" y="220" type="line"/>
      <point x="200" y="251" type="line"/>
      <point x="200" y="310" type="line"/>
    </contour>
  </outline>
</glyph>
<glyph name="heh-ar.init.4" format="2">
  <advance width="239.981"/>
  <outline>
    <contour>
      <point x="-2.0551" y="116.161" type="curve" smooth="yes"/>
      <point x="-2.0551" y="83.1466"/>
      <point x="10.2882" y="59.2676"/>
      <point x="24" y="50" type="curve"/>
      <point x="167" y="50" type="line"/>
      <point x="186.166" y="64.5287"/>
      <point x="199.981" y="96.8709"/>
      <point x="199.981" y="125.215" type="curve" smooth="yes"/>
      <point x="199.981" y="172.974"/>
      <point x="160.759" y="220"/>
      <point x="120" y="220" type="curve" smooth="yes"/>
      <point x="54.9279" y="220"/>
      <point x="-2.0551" y="187.575"/>
    </contour>
    <contour>
      <point x="200.011" y="255" type="line"/>
      <point x="180.011" y="220"/>
      <point x="160" y="220.031"/>
      <point x="120" y="220.031" type="curve"/>
      <point x="200.011" y="20" type="line"/>
    </contour>
    <contour>
      <point x="130" y="70" type="line"/>
      <point x="-20" y="70" type="line"/>
      <point x="-20" y="0" type="line"/>
      <point x="130" y="0" type="line"/>
    </contour>
    <contour>
      <point x="120" y="200" type="line"/>
      <point x="120" y="70" type="line"/>
      <point x="100" y="70" type="line"/>
      <point x="100" y="0" type="line"/>
      <point x="179" y="0" type="line"/>
      <point x="185" y="0"/>
      <point x="200" y="0"/>
      <point x="200" y="11" type="curve"/>
      <point x="200" y="220" type="line"/>
    </contour>
    <contour>
      <point x="80" y="106" type="curve"/>
      <point x="100.637" y="106"/>
      <point x="117.601" y="90.1379"/>
      <point x="119.604" y="70" type="curve"/>
      <point x="98.967" y="70"/>
      <point x="82.0034" y="85.8621"/>
    </contour>
    <contour>
      <point x="80" y="114" type="curve"/>
      <point x="82.0034" y="134.138"/>
      <point x="98.967" y="150"/>
      <point x="119.604" y="150" type="curve"/>
      <point x="117.601" y="129.862"/>
      <point x="100.637" y="114"/>
    </contour>
  </outline>
</glyph>
<glyph name="heh-ar.init.6" format="2">
  <advance width="239.981"/>
  <outline>
    <contour>
      <point x="-2" y="116.67" type="curve" smooth="yes"/>
      <point x="-2" y="85"/>
      <point x="9.76221" y="59.623"/>
      <point x="24" y="50" type="curve"/>
      <point x="167" y="50" type="line"/>
      <point x="186.166" y="64.5287"/>
      <point x="199.981" y="96.8709"/>
      <point x="199.981" y="125.215" type="curve" smooth="yes"/>
      <point x="199.981" y="172.974"/>
      <point x="160.759" y="220"/>
      <point x="120" y="220" type="curve" smooth="yes"/>
      <point x="45.7615" y="220"/>
      <point x="-2" y="180.487"/>
    </contour>
    <contour>
      <point x="200.011" y="255" type="line"/>
      <point x="180.011" y="220"/>
      <point x="160" y="220.031"/>
      <point x="120" y="220.031" type="curve"/>
      <point x="200.011" y="20" type="line"/>
    </contour>
    <contour>
      <point x="130" y="70" type="line"/>
      <point x="-20" y="70" type="line"/>
      <point x="-20" y="0" type="line"/>
      <point x="130" y="0" type="line"/>
    </contour>
    <contour>
      <point x="100" y="0" type="line"/>
      <point x="179" y="0" type="line"/>
      <point x="185" y="0"/>
      <point x="200" y="0"/>
      <point x="200" y="11" type="curve"/>
    </contour>
    <contour>
      <point x="89.5041" y="160" type="line"/>
      <point x="120.003" y="126" type="line"/>
      <point x="80.0027" y="116" type="line"/>
    </contour>
    <contour>
      <point x="110.501" y="70" type="line"/>
      <point x="80.0027" y="104" type="line"/>
      <point x="120.003" y="114" type="line"/>
    </contour>
    <contour>
      <point x="120" y="180" type="line"/>
      <point x="120" y="70" type="line"/>
      <point x="100" y="70" type="line"/>
      <point x="100" y="0" type="line"/>
      <point x="179" y="0" type="line"/>
      <point x="185" y="0"/>
      <point x="200" y="0"/>
      <point x="200" y="11" type="curve"/>
      <point x="200" y="200" type="line"/>
    </contour>
  </outline>
</glyph>
<glyph name="heh-ar.init.7" format="2">
  <advance width="239.981"/>
  <outline>
    <component base="heh-ar.init.6"/>
    <contour>
      <point x="120" y="270" type="line"/>
      <point x="120" y="200" type="line"/>
      <point x="200" y="231" type="line"/>
      <point x="200" y="290" type="line"/>
    </contour>
  </outline>
</glyph>
<glyph name="heh-ar.init" format="2">
  <advance width="239.981"/>
  <outline>
    <contour>
      <point x="80.0028" y="90" type="curve" smooth="yes"/>
      <point x="80.0028" y="101.038"/>
      <point x="88.9644" y="110"/>
      <point x="100.003" y="110" type="curve" smooth="yes"/>
      <point x="111.041" y="110"/>
      <point x="120.003" y="101.038"/>
      <point x="120.003" y="90" type="curve" smooth="yes"/>
      <point x="120.003" y="78.9617"/>
      <point x="111.041" y="70"/>
      <point x="100.003" y="70" type="curve" smooth="yes"/>
      <point x="88.9644" y="70"/>
      <point x="80.0028" y="78.9617"/>
    </contour>
    <contour>
      <point x="-0.0195" y="90" type="curve" smooth="yes"/>
      <point x="-0.0195" y="30"/>
      <point x="44.789" y="0"/>
      <point x="99.9805" y="0" type="curve" smooth="yes"/>
      <point x="165" y="0"/>
      <point x="199.981" y="30"/>
      <point x="199.981" y="90" type="curve" smooth="yes"/>
      <point x="199.981" y="139.672"/>
      <point x="155.172" y="180"/>
      <point x="99.9805" y="180" type="curve" smooth="yes"/>
      <point x="44.789" y="180"/>
      <point x="-0.0195007" y="140"/>
    </contour>
    <contour>
      <point x="200.011" y="215" type="line"/>
      <point x="180.011" y="180"/>
      <point x="140" y="180.031"/>
      <point x="100" y="180.031" type="curve"/>
      <point x="200.011" y="-20" type="line"/>
    </contour>
    <contour>
      <point x="140" y="70" type="line"/>
      <point x="-20" y="70" type="line"/>
      <point x="-20" y="0" type="line"/>
      <point x="140" y="0" type="line"/>
    </contour>
    <contour>
      <point x="80.0028" y="-20" type="curve" smooth="yes"/>
      <point x="80.0028" y="-8.9617"/>
      <point x="88.9644" y="0"/>
      <point x="100.003" y="0" type="curve" smooth="yes"/>
      <point x="111.041" y="0"/>
      <point x="120.003" y="-8.9617"/>
      <point x="120.003" y="-20" type="curve" smooth="yes"/>
      <point x="120.003" y="-31.0383"/>
      <point x="111.041" y="-40"/>
      <point x="100.003" y="-40" type="curve" smooth="yes"/>
      <point x="88.9644" y="-40"/>
      <point x="80.0028" y="-31.0383"/>
    </contour>
    <contour>
      <point x="-0.0195" y="-20" type="curve" smooth="yes"/>
      <point x="-0.0195" y="-80"/>
      <point x="44.789" y="-110"/>
      <point x="99.9805" y="-110" type="curve" smooth="yes"/>
      <point x="165" y="-110"/>
      <point x="199.981" y="-80"/>
      <point x="199.981" y="-20" type="curve" smooth="yes"/>
      <point x="199.981" y="29.6724"/>
      <point x="155.172" y="70"/>
      <point x="99.9805" y="70" type="curve" smooth="yes"/>
      <point x="44.789" y="70"/>
      <point x="-0.0195007" y="30"/>
    </contour>
  </outline>
</glyph>
<glyph name="heh-ar.medi.1" format="2">
  <advance width="239.981"/>
  <outline>
    <component base="heh-ar.init.1"/>
    <contour>
      <point x="240" y="70" type="line"/>
      <point x="80" y="70" type="line"/>
      <point x="80" y="0" type="line"/>
      <point x="240" y="0" type="line"/>
    </contour>
  </outline>
</glyph>
<glyph name="heh-ar.medi.5" format="2">
  <advance width="239.981"/>
  <outline>
    <component base="heh-ar.init.7"/>
    <contour>
      <point x="240" y="70" type="line"/>
      <point x="80" y="70" type="line"/>
      <point x="80" y="0" type="line"/>
      <point x="240" y="0" type="line"/>
    </contour>
  </outline>
</glyph>
<glyph name="kaf-ar.1" format="2">
  <advance width="640"/>
  <outline>
    <contour>
      <point x="486" y="180" type="line"/>
      <point x="530" y="180"/>
      <point x="600" y="160"/>
      <point x="600" y="21" type="curve" smooth="yes"/>
      <point x="600" y="0"/>
      <point x="585" y="0"/>
      <point x="579" y="0" type="curve" smooth="yes"/>
      <point x="0" y="0" type="line"/>
      <point x="40.4" y="70" type="line"/>
      <point x="516" y="70" type="line"/>
      <point x="516" y="92"/>
      <point x="498" y="110"/>
      <point x="476" y="110" type="curve" smooth="yes"/>
      <point x="103" y="110" type="line"/>
      <point x="103" y="180" type="line"/>
    </contour>
    <contour>
      <point x="40" y="110" type="line"/>
      <point x="40" y="540" type="line"/>
      <point x="120" y="560" type="line"/>
      <point x="120" y="110" type="line"/>
    </contour>
  </outline>
</glyph>
<glyph name="kaf-ar.2" format="2">
  <advance width="640"/>
  <outline>
    <contour>
      <point x="486" y="180" type="line"/>
      <point x="530" y="180"/>
      <point x="600" y="160"/>
      <point x="600" y="21" type="curve"/>
      <point x="600" y="0"/>
      <point x="585" y="0"/>
      <point x="579" y="0" type="curve" smooth="yes"/>
      <point x="0" y="0" type="line"/>
      <point x="40.4" y="70" type="line"/>
      <point x="516" y="70" type="line"/>
      <point x="516" y="92"/>
      <point x="498" y="110"/>
      <point x="476" y="110" type="curve" smooth="yes"/>
      <point x="63.5" y="110" type="line"/>
      <point x="144.4" y="250" type="line"/>
      <point x="147" y="250" type="line"/>
      <point x="120" y="180" type="line"/>
    </contour>
  </outline>
</glyph>
<glyph name="kaf-ar.fina.1" format="2">
  <advance width="640"/>
  <outline>
    <component base="kaf-ar.1"/>
    <contour>
      <point x="640" y="70" type="line"/>
      <point x="540" y="70" type="line"/>
      <point x="540" y="0" type="line"/>
      <point x="640" y="0" type="line"/>
    </contour>
  </outline>
</glyph>
<glyph name="kaf-ar.fina.2" format="2">
  <advance width="640"/>
  <outline>
    <component base="kaf-ar.2"/>
    <contour>
      <point x="640" y="70" type="line"/>
      <point x="540" y="70" type="line"/>
      <point x="540" y="0" type="line"/>
      <point x="640" y="0" type="line"/>
    </contour>
  </outline>
</glyph>
<glyph name="kaf-ar.init.2" format="2">
  <advance width="600"/>
  <outline>
    <contour>
      <point x="446" y="180" type="curve" smooth="yes"/>
      <point x="80" y="180" type="line"/>
      <point x="107" y="250" type="line"/>
      <point x="104.4" y="250" type="line"/>
      <point x="23.5" y="110" type="line"/>
      <point x="436" y="110" type="line" smooth="yes"/>
      <point x="458" y="110"/>
      <point x="476" y="92"/>
      <point x="476" y="70" type="curve"/>
      <point x="-20" y="70" type="line"/>
      <point x="-20" y="0" type="line"/>
      <point x="539" y="0" type="line" smooth="yes"/>
      <point x="545" y="0"/>
      <point x="560" y="0"/>
      <point x="560" y="21" type="curve"/>
      <point x="560" y="160"/>
      <point x="490" y="180"/>
    </contour>
  </outline>
</glyph>
<glyph name="kaf-ar.init" format="2">
  <advance width="578"/>
  <outline>
    <contour>
      <point x="424" y="180" type="curve" smooth="yes"/>
      <point x="51" y="180" type="line"/>
      <point x="0" y="110" type="line"/>
      <point x="414" y="110" type="line" smooth="yes"/>
      <point x="436" y="110"/>
      <point x="454" y="92"/>
      <point x="454" y="70" type="curve"/>
      <point x="-20" y="70" type="line"/>
      <point x="-20" y="0" type="line"/>
      <point x="517" y="0" type="line" smooth="yes"/>
      <point x="523" y="0"/>
      <point x="538" y="0"/>
      <point x="538" y="21" type="curve"/>
      <point x="538" y="160"/>
      <point x="468" y="180"/>
    </contour>
    <contour>
      <point x="29.3207" y="126.053" type="line"/>
      <point x="91.8147" y="209.554"/>
      <point x="127.211" y="315.576"/>
      <point x="127.211" y="443.119" type="curve" smooth="yes"/>
      <point x="127.211" y="480.263"/>
      <point x="124.209" y="519.231"/>
      <point x="118" y="560" type="curve"/>
      <point x="38" y="480" type="line"/>
      <point x="44.8397" y="439.661"/>
      <point x="48.5713" y="397.695"/>
      <point x="48.5713" y="355.374" type="curve" smooth="yes"/>
      <point x="48.5713" y="271.705"/>
      <point x="33.9868" y="186.643"/>
      <point x="0" y="110" type="curve"/>
    </contour>
  </outline>
</glyph>
<glyph name="kaf-ar.medi.1" format="2">
  <advance width="600"/>
  <outline>
    <component base="kaf-ar.init.2"/>
    <contour>
      <point x="600" y="70" type="line"/>
      <point x="500" y="70" type="line"/>
      <point x="500" y="0" type="line"/>
      <point x="600" y="0" type="line"/>
    </contour>
  </outline>
</glyph>
<glyph name="kaf-ar.medi" format="2">
  <advance width="578"/>
  <outline>
    <component base="kaf-ar.init"/>
    <contour>
      <point x="578" y="70" type="line"/>
      <point x="478" y="70" type="line"/>
      <point x="478" y="0" type="line"/>
      <point x="578" y="0" type="line"/>
    </contour>
  </outline>
</glyph>
<glyph name="lam-ar.fina" format="2">
  <advance width="270"/>
  <outline>
    <component base="lam-ar"/>
    <contour>
      <point x="230" y="110" type="line"/>
      <point x="230" y="88"/>
      <point x="248" y="70"/>
      <point x="270" y="70" type="curve"/>
      <point x="270" y="0" type="line"/>
      <point x="190" y="0" type="line"/>
      <point x="190" y="110" type="line"/>
    </contour>
  </outline>
</glyph>
<glyph name="lam-ar.init" format="2">
  <advance width="120"/>
  <outline>
    <contour>
      <point x="-20" y="0" type="line"/>
      <point x="42" y="0" type="line"/>
      <point x="65" y="0"/>
      <point x="80" y="15"/>
      <point x="80" y="40" type="curve" smooth="yes"/>
      <point x="80" y="560" type="line"/>
      <point x="0" y="540" type="line"/>
      <point x="0" y="70" type="line"/>
      <point x="-20" y="70" type="line"/>
    </contour>
  </outline>
</glyph>
<glyph name="lam-ar.init.hah" format="2">
  <advance width="80"/>
  <outline>
    <contour>
      <point x="0" y="430" type="line"/>
      <point x="0" y="70" type="line"/>
      <point x="0" y="51.3316"/>
      <point x="-0.2" y="25.3649"/>
      <point x="-20" y="24.6965" type="curve"/>
      <point x="-20" y="0" type="line"/>
      <point x="36.7744" y="0"/>
      <point x="80" y="30.1097"/>
      <point x="80" y="70" type="curve"/>
      <point x="80" y="450" type="line"/>
    </contour>
  </outline>
</glyph>
<glyph name="lam-ar.medi" format="2">
  <advance width="120"/>
  <outline>
    <component base="lam-ar.init"/>
    <contour>
      <point x="80" y="110" type="line"/>
      <point x="80" y="88"/>
      <point x="98" y="70"/>
      <point x="120" y="70" type="curve"/>
      <point x="120" y="0" type="line"/>
      <point x="40" y="0" type="line"/>
      <point x="40" y="110" type="line"/>
    </contour>
  </outline>
</glyph>
<glyph name="lam_alef-ar.1" format="2">
  <advance width="255"/>
  <outline>
    <contour>
      <point x="80" y="560" type="line"/>
      <point x="0" y="540" type="line"/>
      <point x="0" y="0" type="line"/>
      <point x="175" y="0" type="line"/>
      <point x="175" y="70" type="line"/>
      <point x="80" y="70" type="line"/>
    </contour>
    <contour>
      <point x="-212.842" y="460.029" type="line"/>
      <point x="-242.414" y="382.699" type="line"/>
      <point x="125.733" y="116.696" type="line" smooth="yes"/>
      <point x="130.375" y="113.342"/>
      <point x="135" y="107.547"/>
      <point x="135" y="100.151" type="curve" smooth="yes"/>
      <point x="135" y="0" type="line"/>
      <point x="215" y="0" type="line"/>
      <point x="215" y="100.334" type="line" smooth="yes"/>
      <point x="215" y="129"/>
      <point x="201.818" y="160.419"/>
      <point x="172.44" y="181.646" type="curve" smooth="yes"/>
    </contour>
  </outline>
  <guideline angle="0" x="0" y="150"/>
  <guideline angle="0" x="0" y="110"/>
  <guideline angle="90" x="215" y="0"/>
  <guideline angle="90" x="135" y="0"/>
  <guideline angle="0" x="0" y="460"/>
</glyph>
<glyph name="lam_alef-ar.fina.1" format="2">
  <advance width="255"/>
  <outline>
    <component base="lam_alef-ar.1"/>
    <contour>
      <point x="255" y="70" type="line"/>
      <point x="155" y="70" type="line"/>
      <point x="155" y="0" type="line"/>
      <point x="255" y="0" type="line"/>
    </contour>
  </outline>
</glyph>
<glyph name="lam_alef-ar.fina" format="2">
  <advance width="360"/>
  <outline>
    <component base="lam_alef-ar"/>
    <contour>
      <point x="360" y="70" type="line"/>
      <point x="260" y="70" type="line"/>
      <point x="260" y="0" type="line"/>
      <point x="360" y="0" type="line"/>
    </contour>
  </outline>
</glyph>
<glyph name="lam_alef-ar" format="2">
  <advance width="360"/>
  <outline>
    <contour>
      <point x="0" y="0" type="line"/>
      <point x="320" y="0" type="line"/>
      <point x="260" y="70" type="line"/>
      <point x="70" y="70" type="line"/>
    </contour>
    <contour>
      <point x="0" y="0" type="curve"/>
      <point x="189.398" y="79.5423"/>
      <point x="299.918" y="342.295"/>
      <point x="322" y="560" type="curve"/>
      <point x="230" y="520" type="line"/>
      <point x="222.518" y="315.326"/>
      <point x="161.473" y="181.973"/>
    </contour>
    <contour>
      <point x="320" y="0" type="line"/>
      <point x="20.0714" y="520" type="line"/>
      <point x="-40.0171" y="462.701" type="line"/>
      <point x="227" y="0" type="line"/>
    </contour>
  </outline>
</glyph>
<glyph name="meem-ar.1" format="2">
  <advance width="280.003"/>
  <outline>
    <contour>
      <point x="120.003" y="90" type="curve" smooth="yes"/>
      <point x="120.003" y="101.038"/>
      <point x="128.964" y="110"/>
      <point x="140.003" y="110" type="curve" smooth="yes"/>
      <point x="151.041" y="110"/>
      <point x="160.003" y="101.038"/>
      <point x="160.003" y="90" type="curve" smooth="yes"/>
      <point x="160.003" y="78.9617"/>
      <point x="151.041" y="70"/>
      <point x="140.003" y="70" type="curve" smooth="yes"/>
      <point x="128.964" y="70"/>
      <point x="120.003" y="78.9617"/>
    </contour>
    <contour>
      <point x="0" y="0" type="curve"/>
      <point x="140.022" y="0" type="line"/>
      <point x="39.9805" y="90" type="line"/>
      <point x="39.9805" y="50"/>
      <point x="35" y="20"/>
    </contour>
    <contour>
      <point x="39.9805" y="90" type="curve" smooth="yes"/>
      <point x="39.9805" y="30"/>
      <point x="84.789" y="0"/>
      <point x="139.981" y="0" type="curve" smooth="yes"/>
      <point x="205" y="0"/>
      <point x="239.981" y="30"/>
      <point x="239.981" y="90" type="curve" smooth="yes"/>
      <point x="239.981" y="139.672"/>
      <point x="195.172" y="180"/>
      <point x="139.981" y="180" type="curve" smooth="yes"/>
      <point x="84.789" y="180"/>
      <point x="39.9805" y="140"/>
    </contour>
  </outline>
</glyph>
<glyph name="meem-ar.2" format="2">
  <advance width="277.981"/>
  <outline>
    <contour>
      <point x="118.003" y="50" type="curve" smooth="yes"/>
      <point x="118.003" y="61.0383"/>
      <point x="126.964" y="70"/>
      <point x="138.003" y="70" type="curve" smooth="yes"/>
      <point x="149.041" y="70"/>
      <point x="158.003" y="61.0383"/>
      <point x="158.003" y="50" type="curve" smooth="yes"/>
      <point x="158.003" y="38.9617"/>
      <point x="149.041" y="30"/>
      <point x="138.003" y="30" type="curve" smooth="yes"/>
      <point x="126.964" y="30"/>
      <point x="118.003" y="38.9617"/>
    </contour>
    <contour>
      <point x="0.2" y="0" type="curve"/>
      <point x="80" y="0" type="line"/>
      <point x="38.6388" y="60.099" type="line"/>
      <point x="35.381" y="34.6931"/>
      <point x="25.8552" y="14.6601"/>
    </contour>
    <contour>
      <point x="37.9805" y="50" type="curve" smooth="yes"/>
      <point x="37.9805" y="-10"/>
      <point x="82.789" y="-40"/>
      <point x="137.981" y="-40" type="curve" smooth="yes"/>
      <point x="203" y="-40"/>
      <point x="237.981" y="-10"/>
      <point x="237.981" y="50" type="curve" smooth="yes"/>
      <point x="237.981" y="99.6724"/>
      <point x="193.172" y="140"/>
      <point x="137.981" y="140" type="curve" smooth="yes"/>
      <point x="82.789" y="140"/>
      <point x="37.9805" y="100"/>
    </contour>
  </outline>
</glyph>
<glyph name="meem-ar.fina.1" format="2">
  <advance width="280.003"/>
  <outline>
    <component base="meem-ar.1"/>
    <contour>
      <point x="280" y="70" type="line"/>
      <point x="140" y="70" type="line"/>
      <point x="140" y="0" type="line"/>
      <point x="280" y="0" type="line"/>
    </contour>
  </outline>
</glyph>
<glyph name="meem-ar.fina.2" format="2">
  <advance width="276.113"/>
  <outline>
    <component base="meem-ar.2" xOffset="-2"/>
    <contour>
      <point x="276" y="70" type="line"/>
      <point x="216" y="70" type="line"/>
      <point x="216" y="0" type="line"/>
      <point x="276" y="0" type="line"/>
    </contour>
  </outline>
</glyph>
<glyph name="meem-ar.fina" format="2">
  <advance width="439.981"/>
  <outline>
    <component base="meem-ar"/>
    <contour>
      <point x="440" y="70" type="line"/>
      <point x="300" y="70" type="line"/>
      <point x="300" y="0" type="line"/>
      <point x="440" y="0" type="line"/>
    </contour>
  </outline>
</glyph>
<glyph name="meem-ar.init" format="2">
  <advance width="239.981"/>
  <outline>
    <contour>
      <point x="79.9805" y="90" type="curve" smooth="yes"/>
      <point x="79.9805" y="101.038"/>
      <point x="88.9422" y="110"/>
      <point x="99.9805" y="110" type="curve" smooth="yes"/>
      <point x="111.019" y="110"/>
      <point x="119.981" y="101.038"/>
      <point x="119.981" y="90" type="curve" smooth="yes"/>
      <point x="119.981" y="78.9617"/>
      <point x="111.019" y="70"/>
      <point x="99.9805" y="70" type="curve" smooth="yes"/>
      <point x="88.9422" y="70"/>
      <point x="79.9805" y="78.9617"/>
    </contour>
    <contour>
      <point x="-0.0195" y="90" type="curve" smooth="yes"/>
      <point x="-0.0195" y="30"/>
      <point x="44.789" y="0"/>
      <point x="99.9805" y="0" type="curve" smooth="yes"/>
      <point x="165" y="0"/>
      <point x="199.981" y="30"/>
      <point x="199.981" y="90" type="curve" smooth="yes"/>
      <point x="199.981" y="139.672"/>
      <point x="155.172" y="180"/>
      <point x="99.9805" y="180" type="curve" smooth="yes"/>
      <point x="44.789" y="180"/>
      <point x="-0.0195007" y="140"/>
    </contour>
    <contour>
      <point x="100" y="70" type="line"/>
      <point x="-20" y="70" type="line"/>
      <point x="-20" y="0" type="line"/>
      <point x="100" y="0" type="line"/>
    </contour>
  </outline>
</glyph>
<glyph name="meem-ar.medi.1" format="2">
  <advance width="240.113"/>
  <outline>
    <contour>
      <point x="240" y="70" type="line"/>
      <point x="180" y="70" type="line"/>
      <point x="180" y="0" type="line"/>
      <point x="240" y="0" type="line"/>
    </contour>
    <contour>
      <point x="79.9805" y="50" type="curve" smooth="yes"/>
      <point x="79.9805" y="61.0383"/>
      <point x="88.9422" y="70"/>
      <point x="99.9805" y="70" type="curve" smooth="yes"/>
      <point x="111.019" y="70"/>
      <point x="119.981" y="61.0383"/>
      <point x="119.981" y="50" type="curve" smooth="yes"/>
      <point x="119.981" y="38.9617"/>
      <point x="111.019" y="30"/>
      <point x="99.9805" y="30" type="curve" smooth="yes"/>
      <point x="88.9422" y="30"/>
      <point x="79.9805" y="38.9617"/>
    </contour>
    <contour>
      <point x="-0.0195" y="50" type="curve" smooth="yes"/>
      <point x="-0.0195" y="-10"/>
      <point x="35" y="-40"/>
      <point x="99.9805" y="-40" type="curve" smooth="yes"/>
      <point x="165" y="-40"/>
      <point x="199.981" y="-10"/>
      <point x="199.981" y="50" type="curve" smooth="yes"/>
      <point x="199.981" y="99.6724"/>
      <point x="155.172" y="140"/>
      <point x="99.9805" y="140" type="curve" smooth="yes"/>
      <point x="44.789" y="140"/>
      <point x="-0.0194893" y="99.6724"/>
    </contour>
    <contour>
      <point x="30" y="70" type="line"/>
      <point x="-20" y="70" type="line"/>
      <point x="-20" y="0" type="line"/>
      <point x="30" y="0" type="line"/>
    </contour>
  </outline>
</glyph>
<glyph name="meem-ar.medi" format="2">
  <advance width="240.113"/>
  <outline>
    <component base="meem-ar.init"/>
    <contour>
      <point x="240" y="70" type="line"/>
      <point x="100" y="70" type="line"/>
      <point x="100" y="0" type="line"/>
      <point x="240" y="0" type="line"/>
    </contour>
  </outline>
</glyph>
<glyph name="noonghunna-ar.fina" format="2">
  <advance width="260"/>
  <outline>
    <component base="noonghunna-ar"/>
    <contour>
      <point x="260.113" y="70" type="line"/>
      <point x="160.113" y="70" type="line"/>
      <point x="160.113" y="0" type="line"/>
      <point x="260.113" y="0" type="line"/>
    </contour>
  </outline>
</glyph>
<glyph name="qafDotless-ar.fina" format="2">
  <advance width="256"/>
  <outline>
    <component base="qafDotless-ar"/>
    <contour>
      <point x="249" y="70" type="line"/>
      <point x="100" y="70" type="line"/>
      <point x="100" y="0" type="line"/>
      <point x="249" y="0" type="line"/>
    </contour>
  </outline>
</glyph>
<glyph name="reh-ar.1" format="2">
  <advance width="312"/>
  <anchor x="117" y="180" name="top"/>
  <outline>
    <contour>
      <point x="61" y="105" type="curve"/>
      <point x="0.5" y="0" type="line"/>
      <point x="173" y="0" type="line" smooth="yes"/>
      <point x="195" y="0"/>
      <point x="213" y="-18"/>
      <point x="213" y="-40" type="curve"/>
      <point x="-22.6" y="-40" type="line"/>
      <point x="-63" y="-110" type="line"/>
      <point x="276" y="-110" type="line" smooth="yes"/>
      <point x="282" y="-110"/>
      <point x="297" y="-110"/>
      <point x="297" y="-89" type="curve"/>
      <point x="297" y="50"/>
      <point x="228.998" y="96.3393"/>
    </contour>
  </outline>
</glyph>
<glyph name="reh-ar.fina.1" format="2">
  <advance width="283"/>
  <outline>
    <component base="reh-ar.1"/>
    <contour>
      <point x="283" y="70" type="line"/>
      <point x="193" y="70" type="line"/>
      <point x="193" y="0" type="line"/>
      <point x="283" y="0" type="line"/>
    </contour>
  </outline>
</glyph>
<glyph name="reh-ar.fina" format="2">
  <advance width="283"/>
  <outline>
    <component base="reh-ar"/>
    <contour>
      <point x="283" y="70" type="line"/>
      <point x="193" y="70" type="line"/>
      <point x="193" y="0" type="line"/>
      <point x="283" y="0" type="line"/>
    </contour>
  </outline>
</glyph>
<glyph name="sad-ar.1" format="2">
  <advance width="820"/>
  <anchor x="425" y="335.038" name="top"/>
  <outline>
    <contour>
      <point x="666" y="180" type="curve" smooth="yes"/>
      <point x="213" y="180" type="line"/>
      <point x="213" y="110" type="line"/>
      <point x="656" y="110" type="line" smooth="yes"/>
      <point x="678" y="110"/>
      <point x="696" y="92"/>
      <point x="696" y="70" type="curve"/>
      <point x="220" y="70" type="line"/>
      <point x="220" y="0" type="line"/>
      <point x="759" y="0" type="line" smooth="yes"/>
      <point x="765" y="0"/>
      <point x="780" y="0"/>
      <point x="780" y="21" type="curve"/>
      <point x="780" y="160"/>
      <point x="710" y="180"/>
    </contour>
    <contour>
      <point x="-50" y="-250" type="line"/>
      <point x="192" y="-250" type="line"/>
      <point x="215" y="-250"/>
      <point x="230" y="-235"/>
      <point x="230" y="-210" type="curve" smooth="yes"/>
      <point x="230" y="250" type="line"/>
      <point x="150" y="230" type="line"/>
      <point x="150" y="-180" type="line"/>
      <point x="50" y="-180" type="line"/>
      <point x="29.8474" y="-180"/>
      <point x="13.1837" y="-174.526"/>
      <point x="2" y="-160" type="curve"/>
    </contour>
  </outline>
</glyph>
<glyph name="sad-ar.fina.1" format="2">
  <advance width="820"/>
  <outline>
    <component base="sad-ar.1"/>
    <contour>
      <point x="820" y="70" type="line"/>
      <point x="720" y="70" type="line"/>
      <point x="720" y="0" type="line"/>
      <point x="820" y="0" type="line"/>
    </contour>
  </outline>
</glyph>
<glyph name="sad-ar.fina" format="2">
  <advance width="820"/>
  <outline>
    <component base="sad-ar"/>
    <contour>
      <point x="820" y="70" type="line"/>
      <point x="719" y="70" type="line"/>
      <point x="719" y="0" type="line"/>
      <point x="820" y="0" type="line"/>
    </contour>
  </outline>
</glyph>
<glyph name="sad-ar.init" format="2">
  <advance width="670"/>
  <anchor x="300" y="335.038" name="top"/>
  <outline>
    <contour>
      <point x="516" y="180" type="curve" smooth="yes"/>
      <point x="63" y="180" type="line"/>
      <point x="63" y="110" type="line"/>
      <point x="506" y="110" type="line" smooth="yes"/>
      <point x="528" y="110"/>
      <point x="546" y="92"/>
      <point x="546" y="70" type="curve"/>
      <point x="-20" y="70" type="line"/>
      <point x="-20" y="0" type="line"/>
      <point x="609" y="0" type="line" smooth="yes"/>
      <point x="615" y="0"/>
      <point x="630" y="0"/>
      <point x="630" y="21" type="curve"/>
      <point x="630" y="160"/>
      <point x="560" y="180"/>
    </contour>
    <contour>
      <point x="80" y="0" type="line"/>
      <point x="80" y="250" type="line"/>
      <point x="0" y="230" type="line"/>
      <point x="0" y="0" type="line"/>
    </contour>
  </outline>
</glyph>
<glyph name="sad-ar.medi" format="2">
  <advance width="670"/>
  <outline>
    <component base="sad-ar.init"/>
    <contour>
      <point x="670" y="70" type="line"/>
      <point x="570" y="70" type="line"/>
      <point x="570" y="0" type="line"/>
      <point x="670" y="0" type="line"/>
    </contour>
  </outline>
</glyph>
<glyph name="seen-ar.2" format="2">
  <advance width="510"/>
  <outline>
    <component base="seen-ar"/>
    <contour>
      <point x="390" y="250" type="line"/>
      <point x="470" y="270" type="line"/>
      <point x="470" y="220" type="line"/>
      <point x="390" y="200" type="line"/>
    </contour>
    <contour>
      <point x="270" y="250" type="line"/>
      <point x="350" y="270" type="line"/>
      <point x="350" y="220" type="line"/>
      <point x="270" y="200" type="line"/>
    </contour>
    <contour>
      <point x="150" y="250" type="line"/>
      <point x="230" y="270" type="line"/>
      <point x="230" y="220" type="line"/>
      <point x="150" y="200" type="line"/>
    </contour>
  </outline>
</glyph>
<glyph name="seen-ar.5" format="2">
  <advance width="510"/>
  <outline>
    <component base="seen-ar.3"/>
    <contour>
      <point x="390" y="290" type="line"/>
      <point x="470" y="310" type="line"/>
      <point x="470" y="260" type="line"/>
      <point x="390" y="240" type="line"/>
    </contour>
    <contour>
      <point x="270" y="260" type="line"/>
      <point x="350" y="280" type="line"/>
      <point x="350" y="230" type="line"/>
      <point x="270" y="210" type="line"/>
    </contour>
    <contour>
      <point x="150" y="230" type="line"/>
      <point x="230" y="250" type="line"/>
      <point x="230" y="200" type="line"/>
      <point x="150" y="180" type="line"/>
    </contour>
  </outline>
</glyph>
<glyph name="seen-ar.6" format="2">
  <advance width="451"/>
  <anchor x="251" y="252" name="top"/>
  <outline>
    <contour>
      <point x="381.113" y="70" type="line"/>
      <point x="160.113" y="70" type="line"/>
      <point x="160.113" y="0" type="line"/>
      <point x="381.113" y="0" type="line"/>
    </contour>
    <contour>
      <point x="261.027" y="140.038" type="line"/>
      <point x="203.313" y="40" type="line"/>
      <point x="361.013" y="40" type="line"/>
    </contour>
    <contour>
      <point x="331.113" y="157.417" type="line"/>
      <point x="331.113" y="70" type="line"/>
      <point x="311.113" y="70" type="line"/>
      <point x="311.113" y="0" type="line"/>
      <point x="390.113" y="0" type="line" smooth="yes"/>
      <point x="396.113" y="0"/>
      <point x="411.113" y="0"/>
      <point x="411.113" y="11" type="curve" smooth="yes"/>
      <point x="411.113" y="177.417" type="line"/>
    </contour>
    <contour>
      <point x="-50" y="-250" type="line"/>
      <point x="192" y="-250" type="line" smooth="yes"/>
      <point x="215" y="-250"/>
      <point x="230" y="-235"/>
      <point x="230" y="-210" type="curve" smooth="yes"/>
      <point x="230" y="60" type="line"/>
      <point x="150" y="60" type="line"/>
      <point x="150" y="-180" type="line"/>
      <point x="50" y="-180" type="line"/>
      <point x="29.8474" y="-180"/>
      <point x="13.1837" y="-174.526"/>
      <point x="2" y="-160" type="curve"/>
    </contour>
    <contour>
      <point x="110.1" y="70" type="line"/>
      <point x="182.142" y="-2.0284" type="line"/>
      <point x="250.513" y="40" type="line"/>
      <point x="150.527" y="140.038" type="line"/>
    </contour>
  </outline>
</glyph>
<glyph name="seen-ar.fina.4" format="2">
  <advance width="510"/>
  <outline>
    <component base="seen-ar.4"/>
    <contour>
      <point x="470" y="110" type="line"/>
      <point x="470" y="88"/>
      <point x="488" y="70"/>
      <point x="510" y="70" type="curve"/>
      <point x="510" y="0" type="line"/>
      <point x="430" y="0" type="line"/>
      <point x="430" y="110" type="line"/>
    </contour>
  </outline>
</glyph>
<glyph name="seen-ar.init.4" format="2">
  <advance width="360"/>
  <outline>
    <component base="seen-ar.init.3"/>
    <contour>
      <point x="240" y="270" type="line"/>
      <point x="320" y="290" type="line"/>
      <point x="320" y="240" type="line"/>
      <point x="240" y="220" type="line"/>
    </contour>
    <contour>
      <point x="120" y="240" type="line"/>
      <point x="200" y="260" type="line"/>
      <point x="200" y="210" type="line"/>
      <point x="120" y="190" type="line"/>
    </contour>
    <contour>
      <point x="0" y="210" type="line"/>
      <point x="80" y="230" type="line"/>
      <point x="80" y="180" type="line"/>
      <point x="0" y="160" type="line"/>
    </contour>
  </outline>
</glyph>
<glyph name="seen-ar.init.5" format="2">
  <advance width="360"/>
  <outline>
    <component base="seen-ar.init.3"/>
    <contour>
      <point x="240" y="290" type="line"/>
      <point x="320" y="310" type="line"/>
      <point x="320" y="260" type="line"/>
      <point x="240" y="240" type="line"/>
    </contour>
    <contour>
      <point x="120" y="260" type="line"/>
      <point x="200" y="280" type="line"/>
      <point x="200" y="230" type="line"/>
      <point x="120" y="210" type="line"/>
    </contour>
    <contour>
      <point x="0" y="230" type="line"/>
      <point x="80" y="250" type="line"/>
      <point x="80" y="200" type="line"/>
      <point x="0" y="180" type="line"/>
    </contour>
  </outline>
</glyph>
<glyph name="seen-ar.init.6" format="2">
  <advance width="341"/>
  <outline>
    <contour>
      <point x="271" y="70" type="line"/>
      <point x="-20" y="70" type="line"/>
      <point x="-20" y="0" type="line"/>
      <point x="271" y="0" type="line"/>
    </contour>
    <contour>
      <point x="40.4141" y="140.038" type="line"/>
      <point x="-17.3" y="40" type="line"/>
      <point x="140.4" y="40" type="line"/>
    </contour>
    <contour>
      <point x="150.914" y="140.038" type="line"/>
      <point x="93.2" y="40" type="line"/>
      <point x="250.9" y="40" type="line"/>
    </contour>
    <contour>
      <point x="221" y="157.417" type="line"/>
      <point x="221" y="70" type="line"/>
      <point x="201" y="70" type="line"/>
      <point x="201" y="0" type="line"/>
      <point x="280" y="0" type="line" smooth="yes"/>
      <point x="286" y="0"/>
      <point x="301" y="0"/>
      <point x="301" y="11" type="curve" smooth="yes"/>
      <point x="301" y="177.417" type="line"/>
    </contour>
  </outline>
</glyph>
<glyph name="seen-ar.medi.5" format="2">
  <advance width="360"/>
  <outline>
    <component base="seen-ar.init.5"/>
    <contour>
      <point x="320" y="110" type="line"/>
      <point x="320" y="88"/>
      <point x="338" y="70"/>
      <point x="360" y="70" type="curve"/>
      <point x="360" y="0" type="line"/>
      <point x="280" y="0" type="line"/>
      <point x="280" y="110" type="line"/>
    </contour>
  </outline>
</glyph>
<glyph name="seen-ar.medi.6" format="2">
  <advance width="371"/>
  <anchor x="175.5" y="215.038" name="top"/>
  <outline>
    <contour>
      <point x="371" y="70" type="line"/>
      <point x="-20" y="70" type="line"/>
      <point x="-20" y="0" type="line"/>
      <point x="371" y="0" type="line"/>
    </contour>
    <contour>
      <point x="40.4141" y="140.038" type="line"/>
      <point x="-17.3" y="40" type="line"/>
      <point x="140.4" y="40" type="line"/>
    </contour>
    <contour>
      <point x="150.914" y="140.038" type="line"/>
      <point x="93.2" y="40" type="line"/>
      <point x="250.9" y="40" type="line"/>
    </contour>
    <contour>
      <point x="261.214" y="140.038" type="line"/>
      <point x="203.5" y="40" type="line"/>
      <point x="361.2" y="40" type="line"/>
    </contour>
  </outline>
</glyph>
<glyph name="tah-ar.fina" format="2">
  <advance width="750.237"/>
  <outline>
    <component base="tah-ar"/>
    <contour>
      <point x="750" y="70" type="line"/>
      <point x="650" y="70" type="line"/>
      <point x="650" y="0" type="line"/>
      <point x="750" y="0" type="line"/>
    </contour>
  </outline>
</glyph>
<glyph name="tah-ar.medi" format="2">
  <advance width="670.237"/>
  <outline>
    <component base="tah-ar.init"/>
    <contour>
      <point x="670" y="70" type="line"/>
      <point x="570" y="70" type="line"/>
      <point x="570" y="0" type="line"/>
      <point x="670" y="0" type="line"/>
    </contour>
  </outline>
</glyph>
<glyph name="waw-ar.1" format="2">
  <advance width="270"/>
  <outline>
    <contour>
      <point x="2" y="-20" type="line"/>
      <point x="12.1486" y="-33.1819"/>
      <point x="27.5585" y="-40"/>
      <point x="50" y="-40" type="curve"/>
      <point x="130" y="-40" type="line"/>
      <point x="130" y="-110" type="line"/>
      <point x="-50" y="-110" type="line"/>
    </contour>
    <contour>
      <point x="110.003" y="90" type="curve" smooth="yes"/>
      <point x="110.003" y="78.9617"/>
      <point x="118.964" y="70"/>
      <point x="130.003" y="70" type="curve" smooth="yes"/>
      <point x="141.041" y="70"/>
      <point x="150.003" y="78.9617"/>
      <point x="150.003" y="90" type="curve" smooth="yes"/>
      <point x="150.003" y="101.038"/>
      <point x="141.041" y="110"/>
      <point x="130.003" y="110" type="curve" smooth="yes"/>
      <point x="118.964" y="110"/>
      <point x="110.003" y="101.038"/>
    </contour>
    <contour>
      <point x="29.9805" y="90" type="curve" smooth="yes"/>
      <point x="29.9805" y="139.672"/>
      <point x="74.789" y="180"/>
      <point x="129.981" y="180" type="curve" smooth="yes"/>
      <point x="185.172" y="180"/>
      <point x="229.981" y="139.672"/>
      <point x="229.981" y="90" type="curve" smooth="yes"/>
      <point x="229.981" y="40.3276"/>
      <point x="185.172" y="0"/>
      <point x="129.981" y="0" type="curve" smooth="yes"/>
      <point x="74.789" y="0"/>
      <point x="29.9805" y="40.3276"/>
    </contour>
    <contour>
      <point x="10" y="-110" type="line"/>
      <point x="10" y="-40" type="line"/>
      <point x="150" y="-40" type="line"/>
      <point x="150" y="100" type="line"/>
      <point x="230" y="90" type="line"/>
      <point x="230" y="-70" type="line" smooth="yes"/>
      <point x="230" y="-95"/>
      <point x="215" y="-110"/>
      <point x="192" y="-110" type="curve" smooth="yes"/>
    </contour>
  </outline>
</glyph>
<glyph name="waw-ar.fina.1" format="2">
  <advance width="270"/>
  <outline>
    <component base="waw-ar.1"/>
    <contour>
      <point x="270" y="70" type="line"/>
      <point x="170" y="70" type="line"/>
      <point x="170" y="0" type="line"/>
      <point x="270" y="0" type="line"/>
    </contour>
  </outline>
</glyph>
<glyph name="waw-ar.fina" format="2">
  <advance width="280"/>
  <outline>
    <component base="waw-ar"/>
    <contour>
      <point x="280" y="70" type="line"/>
      <point x="180" y="70" type="line"/>
      <point x="180" y="0" type="line"/>
      <point x="280" y="0" type="line"/>
    </contour>
  </outline>
</glyph>
